<svg width="995" height="1014" viewBox="0 0 995 1014" fill="none" xmlns="http://www.w3.org/2000/svg">
<g clip-path="url(#clip0_1102_420)">
<path d="M620.999 637.695L610.059 621.756L651.468 625.803C773.815 576.369 669.542 633.284 701.056 588.223H726.201C726.201 588.223 730.791 630.542 713.126 619.433C703.234 641.454 637.812 644.616 620.999 637.695Z" fill="url(#paint0_linear_1102_420)"/>
<path d="M713.126 619.433V604.588L703.234 611.021C714.804 605.358 723.944 590.517 725.945 588.223H752.647C784.325 609.491 808.915 619.038 831.139 622.895L865.896 613.549L854.956 631.676C831.608 639.921 737.922 644.628 713.126 619.433Z" fill="url(#paint1_linear_1102_420)"/>
<path d="M641.692 601.789H730.548V711.502H641.692V601.789Z" fill="#DDD3D4"/>
<path d="M730.548 601.789H840.705V711.502H730.548V601.789Z" fill="#FDFDFD"/>
<path d="M777.473 660.955H794.991V708.315H777.473V660.955Z" fill="#272747"/>
<path d="M794.991 660.955H800.373V708.315H794.991V660.955Z" fill="#FFBA78"/>
<path d="M772.091 660.955H777.473V708.315H772.091V660.955Z" fill="#FFBA78"/>
<path d="M751.345 673.418V660.955H765.927V673.418H751.345Z" fill="#FFBA78"/>
<path d="M806.242 673.418V660.955H820.824V673.418H806.242Z" fill="#FFBA78"/>
<path d="M825.262 601.789H840.705V711.502H825.262V601.789Z" fill="url(#paint2_linear_1102_420)"/>
<path d="M730.548 601.789H745.991V711.502H730.548V601.789Z" fill="url(#paint3_linear_1102_420)"/>
<path d="M730.071 634.97H840.705V642.98H730.071V634.97Z" fill="url(#paint4_linear_1102_420)"/>
<path d="M781.383 639.447V617.168H789.393V639.447H781.383Z" fill="url(#paint5_linear_1102_420)"/>
<path d="M641.692 601.789H657.135V711.502H641.692V601.789Z" fill="url(#paint6_linear_1102_420)"/>
<path d="M715.106 601.789H730.548V711.502H715.106V601.789Z" fill="url(#paint7_linear_1102_420)"/>
<path d="M641.692 634.97H730.071V642.98H641.692V634.97Z" fill="url(#paint8_linear_1102_420)"/>
<path d="M600.562 625.891L587.69 607.137L636.412 611.899C780.365 553.735 657.678 620.7 694.757 567.682H724.342C724.342 567.682 729.743 617.475 708.959 604.404C697.319 630.313 620.344 634.034 600.562 625.891Z" fill="url(#paint9_linear_1102_420)"/>
<path d="M708.959 604.404V586.937L697.319 594.507C710.933 587.843 721.686 570.381 724.041 567.682H755.459C792.731 592.705 821.663 603.939 847.812 608.477L888.707 597.481L875.835 618.809C848.365 628.509 738.134 634.049 708.959 604.404Z" fill="url(#paint10_linear_1102_420)"/>
<path d="M579.667 608.395V593.689L632.331 598.837C657.194 588.734 678.95 572.247 695.398 551.041H727.378C727.378 551.041 731.132 600.376 708.666 586.248C700.144 619.836 600.776 621.459 579.667 608.395Z" fill="#0D0D1E"/>
<path d="M708.666 586.248V571.542L698.168 580.037C712.883 572.834 724.507 553.958 727.051 551.041H761.012C801.3 578.09 832.574 590.233 860.839 595.138L905.044 583.251V597.957C874.572 618.75 735.473 625.321 708.666 586.248Z" fill="#1C1C35"/>
<path d="M579.667 593.689C627.836 602.138 701.834 536.335 701.834 536.335H727.378C727.378 536.335 731.132 585.671 708.666 571.542C700.144 605.13 600.776 606.753 579.667 593.689Z" fill="#1C1C35"/>
<path d="M708.666 571.542C730.036 576.069 727.051 536.335 727.051 536.335H761.012C823.108 578.024 863.789 584.305 905.044 583.251C874.572 604.044 735.472 610.614 708.666 571.542Z" fill="#272747"/>
<path d="M855.873 689.971H730.548V686.165H855.873V689.971Z" fill="url(#paint11_linear_1102_420)"/>
<path d="M855.873 701.217H730.548V697.41H855.873V701.217Z" fill="url(#paint12_linear_1102_420)"/>
<path d="M855.873 711.502H730.548V707.695H855.873V711.502Z" fill="url(#paint13_linear_1102_420)"/>
<path d="M775.337 711.502H770.817V688.068H775.337V711.502Z" fill="url(#paint14_linear_1102_420)"/>
<path d="M735.069 711.502H730.548V688.068H735.069V711.502Z" fill="url(#paint15_linear_1102_420)"/>
<path d="M815.605 711.502H811.084V688.068H815.605V711.502Z" fill="url(#paint16_linear_1102_420)"/>
<path d="M855.873 711.502H851.353V688.068H855.873V711.502Z" fill="url(#paint17_linear_1102_420)"/>
<path d="M730.549 689.971H628.394V686.165H730.549V689.971Z" fill="url(#paint18_linear_1102_420)"/>
<path d="M730.549 701.217H628.394V697.41H730.549V701.217Z" fill="url(#paint19_linear_1102_420)"/>
<path d="M730.549 711.502H628.394V707.695H730.549V711.502Z" fill="url(#paint20_linear_1102_420)"/>
<path d="M665.459 711.502H660.938V688.068H665.459V711.502Z" fill="url(#paint21_linear_1102_420)"/>
<path d="M632.914 711.502H628.394V688.068H632.914V711.502Z" fill="url(#paint22_linear_1102_420)"/>
<path d="M698.004 711.502H693.483V688.068H698.004V711.502Z" fill="url(#paint23_linear_1102_420)"/>
<path d="M730.549 711.502H726.028V688.068H730.549V711.502Z" fill="url(#paint24_linear_1102_420)"/>
<path d="M620.999 502.026L610.059 486.087L651.468 490.134C773.815 440.7 669.542 497.615 701.056 452.554H726.201C726.201 452.554 730.791 494.873 713.126 483.765C703.234 505.785 637.812 508.947 620.999 502.026Z" fill="url(#paint25_linear_1102_420)"/>
<path d="M713.126 483.765V468.919L703.234 475.353C714.804 469.689 723.944 454.848 725.945 452.554H752.647C784.325 473.822 808.915 483.369 831.139 487.226L865.896 477.88L854.956 496.007C831.608 504.252 737.922 508.96 713.126 483.765Z" fill="url(#paint26_linear_1102_420)"/>
<path d="M641.692 466.12H730.548V575.833H641.692V466.12Z" fill="#DDD3D4"/>
<path d="M730.548 466.12H840.705V575.833H730.548V466.12Z" fill="#FDFDFD"/>
<path d="M777.473 525.287H794.991V572.646H777.473V525.287Z" fill="#272747"/>
<path d="M794.991 525.287H800.373V572.646H794.991V525.287Z" fill="#FFBA78"/>
<path d="M772.091 525.287H777.473V572.646H772.091V525.287Z" fill="#FFBA78"/>
<path d="M751.345 537.75V525.286H765.927V537.75H751.345Z" fill="#FFBA78"/>
<path d="M806.242 537.75V525.286H820.824V537.75H806.242Z" fill="#FFBA78"/>
<path d="M825.262 466.12H840.705V575.833H825.262V466.12Z" fill="url(#paint27_linear_1102_420)"/>
<path d="M730.548 466.12H745.991V575.833H730.548V466.12Z" fill="url(#paint28_linear_1102_420)"/>
<path d="M730.071 499.301H840.705V507.311H730.071V499.301Z" fill="url(#paint29_linear_1102_420)"/>
<path d="M781.383 503.778V481.499H789.393V503.778H781.383Z" fill="url(#paint30_linear_1102_420)"/>
<path d="M641.692 466.12H657.135V575.833H641.692V466.12Z" fill="url(#paint31_linear_1102_420)"/>
<path d="M715.106 466.12H730.548V575.833H715.106V466.12Z" fill="url(#paint32_linear_1102_420)"/>
<path d="M641.692 499.301H730.071V507.311H641.692V499.301Z" fill="url(#paint33_linear_1102_420)"/>
<path d="M600.562 490.222L587.69 471.468L636.412 476.23C780.365 418.066 657.678 485.031 694.757 432.013H724.342C724.342 432.013 729.743 481.806 708.959 468.735C697.319 494.645 620.344 498.365 600.562 490.222Z" fill="url(#paint34_linear_1102_420)"/>
<path d="M708.959 468.735V451.269L697.319 458.838C710.933 452.174 721.686 434.712 724.041 432.013H755.459C792.731 457.037 821.663 468.27 847.812 472.808L888.707 461.812L875.835 483.14C848.365 492.841 738.134 498.38 708.959 468.735Z" fill="url(#paint35_linear_1102_420)"/>
<path d="M579.667 472.727V458.02L632.331 463.168C657.194 453.066 678.95 436.578 695.398 415.373H727.378C727.378 415.373 731.132 464.708 708.666 450.58C700.144 484.168 600.776 485.791 579.667 472.727Z" fill="#0D0D1E"/>
<path d="M708.666 450.58V435.874L698.168 444.368C712.883 437.165 724.507 418.29 727.051 415.373H761.012C801.3 442.421 832.574 454.564 860.839 459.469L905.044 447.583V462.289C874.572 483.081 735.473 489.652 708.666 450.58Z" fill="#1C1C35"/>
<path d="M579.667 458.02C627.836 466.469 701.834 400.666 701.834 400.666H727.378C727.378 400.666 731.132 450.002 708.666 435.874C700.144 469.461 600.776 471.084 579.667 458.02Z" fill="#1C1C35"/>
<path d="M708.666 435.874C730.036 440.4 727.051 400.666 727.051 400.666H761.012C823.108 442.356 863.789 448.636 905.044 447.583C874.572 468.375 735.472 474.946 708.666 435.874Z" fill="#272747"/>
<path d="M855.873 554.303H730.548V550.496H855.873V554.303Z" fill="url(#paint36_linear_1102_420)"/>
<path d="M855.873 565.548H730.548V561.741H855.873V565.548Z" fill="url(#paint37_linear_1102_420)"/>
<path d="M855.873 575.833H730.548V572.027H855.873V575.833Z" fill="url(#paint38_linear_1102_420)"/>
<path d="M775.337 575.833H770.817V552.4H775.337V575.833Z" fill="url(#paint39_linear_1102_420)"/>
<path d="M735.069 575.833H730.548V552.4H735.069V575.833Z" fill="url(#paint40_linear_1102_420)"/>
<path d="M815.605 575.833H811.084V552.4H815.605V575.833Z" fill="url(#paint41_linear_1102_420)"/>
<path d="M855.873 575.833H851.353V552.4H855.873V575.833Z" fill="url(#paint42_linear_1102_420)"/>
<path d="M730.549 554.303H628.394V550.496H730.549V554.303Z" fill="url(#paint43_linear_1102_420)"/>
<path d="M730.549 565.548H628.394V561.741H730.549V565.548Z" fill="url(#paint44_linear_1102_420)"/>
<path d="M730.549 575.833H628.394V572.027H730.549V575.833Z" fill="url(#paint45_linear_1102_420)"/>
<path d="M665.459 575.833H660.938V552.4H665.459V575.833Z" fill="url(#paint46_linear_1102_420)"/>
<path d="M632.914 575.833H628.394V552.4H632.914V575.833Z" fill="url(#paint47_linear_1102_420)"/>
<path d="M698.004 575.833H693.483V552.4H698.004V575.833Z" fill="url(#paint48_linear_1102_420)"/>
<path d="M730.549 575.833H726.028V552.4H730.549V575.833Z" fill="url(#paint49_linear_1102_420)"/>
<path d="M620.999 366.357L610.059 350.418L651.468 354.465C773.815 305.031 669.542 361.946 701.056 316.885H726.201C726.201 316.885 730.791 359.204 713.126 348.095C703.234 370.116 637.812 373.278 620.999 366.357Z" fill="url(#paint50_linear_1102_420)"/>
<path d="M713.126 348.095V333.25L703.234 339.684C714.804 334.02 723.944 319.179 725.945 316.885H752.647C784.325 338.153 808.915 347.7 831.139 351.557L865.896 342.211L854.956 360.338C831.608 368.583 737.922 373.291 713.126 348.095Z" fill="url(#paint51_linear_1102_420)"/>
<path d="M641.692 330.451H730.548V440.164H641.692V330.451Z" fill="#DDD3D4"/>
<path d="M730.548 330.451H840.705V440.164H730.548V330.451Z" fill="#FDFDFD"/>
<path d="M777.473 389.617H794.991V436.977H777.473V389.617Z" fill="#272747"/>
<path d="M794.991 389.617H800.373V436.977H794.991V389.617Z" fill="#FFBA78"/>
<path d="M772.091 389.617H777.473V436.977H772.091V389.617Z" fill="#FFBA78"/>
<path d="M751.345 402.081V389.617H765.927V402.081H751.345Z" fill="#FFBA78"/>
<path d="M806.242 402.081V389.617H820.824V402.081H806.242Z" fill="#FFBA78"/>
<path d="M825.262 330.451H840.705V440.164H825.262V330.451Z" fill="url(#paint52_linear_1102_420)"/>
<path d="M730.548 330.451H745.991V440.164H730.548V330.451Z" fill="url(#paint53_linear_1102_420)"/>
<path d="M730.071 363.632H840.705V371.642H730.071V363.632Z" fill="url(#paint54_linear_1102_420)"/>
<path d="M781.383 368.109V345.83H789.393V368.109H781.383Z" fill="url(#paint55_linear_1102_420)"/>
<path d="M641.692 330.451H657.135V440.164H641.692V330.451Z" fill="url(#paint56_linear_1102_420)"/>
<path d="M715.106 330.451H730.548V440.164H715.106V330.451Z" fill="url(#paint57_linear_1102_420)"/>
<path d="M641.692 363.632H730.071V371.642H641.692V363.632Z" fill="url(#paint58_linear_1102_420)"/>
<path d="M600.562 354.553L587.69 335.799L636.412 340.561C780.365 282.397 657.678 349.362 694.757 296.344H724.342C724.342 296.344 729.743 346.136 708.959 333.066C697.319 358.975 620.344 362.696 600.562 354.553Z" fill="url(#paint59_linear_1102_420)"/>
<path d="M708.959 333.066V315.599L697.319 323.169C710.933 316.505 721.686 299.043 724.041 296.344H755.459C792.731 321.367 821.663 332.601 847.812 337.139L888.707 326.142L875.835 347.471C848.365 357.171 738.134 362.711 708.959 333.066Z" fill="url(#paint60_linear_1102_420)"/>
<path d="M579.667 337.057V322.351L632.331 327.498C657.194 317.396 678.95 300.909 695.398 279.703H727.378C727.378 279.703 731.132 329.039 708.666 314.91C700.144 348.498 600.776 350.121 579.667 337.057Z" fill="#0D0D1E"/>
<path d="M708.666 314.91V300.204L698.168 308.699C712.883 301.495 724.507 282.62 727.051 279.703H761.012C801.3 306.752 832.574 318.894 860.839 323.8L905.044 311.913V326.619C874.572 347.412 735.473 353.983 708.666 314.91Z" fill="#1C1C35"/>
<path d="M579.667 322.351C627.836 330.8 701.834 264.997 701.834 264.997H727.378C727.378 264.997 731.132 314.333 708.666 300.204C700.144 333.792 600.776 335.415 579.667 322.351Z" fill="#1C1C35"/>
<path d="M708.666 300.204C730.036 304.731 727.051 264.997 727.051 264.997H761.012C823.108 306.687 863.789 312.967 905.044 311.913C874.572 332.706 735.472 339.277 708.666 300.204Z" fill="#272747"/>
<path d="M855.873 418.634H730.548V414.827H855.873V418.634Z" fill="url(#paint61_linear_1102_420)"/>
<path d="M855.873 429.879H730.548V426.072H855.873V429.879Z" fill="url(#paint62_linear_1102_420)"/>
<path d="M855.873 440.164H730.548V436.357H855.873V440.164Z" fill="url(#paint63_linear_1102_420)"/>
<path d="M775.337 440.164H770.817V416.73H775.337V440.164Z" fill="url(#paint64_linear_1102_420)"/>
<path d="M735.069 440.164H730.548V416.73H735.069V440.164Z" fill="url(#paint65_linear_1102_420)"/>
<path d="M815.605 440.164H811.084V416.73H815.605V440.164Z" fill="url(#paint66_linear_1102_420)"/>
<path d="M855.873 440.164H851.353V416.73H855.873V440.164Z" fill="url(#paint67_linear_1102_420)"/>
<path d="M730.549 418.634H628.394V414.827H730.549V418.634Z" fill="url(#paint68_linear_1102_420)"/>
<path d="M730.549 429.879H628.394V426.072H730.549V429.879Z" fill="url(#paint69_linear_1102_420)"/>
<path d="M730.549 440.164H628.394V436.357H730.549V440.164Z" fill="url(#paint70_linear_1102_420)"/>
<path d="M665.459 440.164H660.938V416.73H665.459V440.164Z" fill="url(#paint71_linear_1102_420)"/>
<path d="M632.914 440.164H628.394V416.73H632.914V440.164Z" fill="url(#paint72_linear_1102_420)"/>
<path d="M698.004 440.164H693.483V416.73H698.004V440.164Z" fill="url(#paint73_linear_1102_420)"/>
<path d="M730.549 440.164H726.028V416.73H730.549V440.164Z" fill="url(#paint74_linear_1102_420)"/>
<path d="M620.999 230.688L610.059 214.749L651.468 218.797C773.815 169.362 669.542 226.277 701.056 181.216H726.201C726.201 181.216 730.791 223.535 713.126 212.427C703.234 234.447 637.812 237.61 620.999 230.688Z" fill="url(#paint75_linear_1102_420)"/>
<path d="M713.126 212.427V197.582L703.234 204.015C714.804 198.351 723.944 183.51 725.945 181.216H752.647C784.325 202.484 808.915 212.031 831.139 215.888L865.896 206.542L854.956 224.67C831.608 232.914 737.922 237.622 713.126 212.427Z" fill="url(#paint76_linear_1102_420)"/>
<path d="M641.692 194.782H730.548V304.495H641.692V194.782Z" fill="#DDD3D4"/>
<path d="M730.548 194.782H840.705V304.495H730.548V194.782Z" fill="#FDFDFD"/>
<path d="M777.473 253.949H794.991V301.309H777.473V253.949Z" fill="#272747"/>
<path d="M794.991 253.949H800.373V301.309H794.991V253.949Z" fill="#FFBA78"/>
<path d="M772.091 253.949H777.473V301.309H772.091V253.949Z" fill="#FFBA78"/>
<path d="M751.345 266.412V253.949H765.927V266.412H751.345Z" fill="#FFBA78"/>
<path d="M806.242 266.412V253.949H820.824V266.412H806.242Z" fill="#FFBA78"/>
<path d="M825.262 194.782H840.705V304.495H825.262V194.782Z" fill="url(#paint77_linear_1102_420)"/>
<path d="M730.548 194.782H745.991V304.495H730.548V194.782Z" fill="url(#paint78_linear_1102_420)"/>
<path d="M730.071 227.963H840.705V235.973H730.071V227.963Z" fill="url(#paint79_linear_1102_420)"/>
<path d="M781.383 232.44V210.162H789.393V232.44H781.383Z" fill="url(#paint80_linear_1102_420)"/>
<path d="M641.692 194.782H657.135V304.495H641.692V194.782Z" fill="url(#paint81_linear_1102_420)"/>
<path d="M715.106 194.782H730.548V304.495H715.106V194.782Z" fill="url(#paint82_linear_1102_420)"/>
<path d="M641.692 227.963H730.071V235.973H641.692V227.963Z" fill="url(#paint83_linear_1102_420)"/>
<path d="M600.562 218.884L587.69 200.13L636.412 204.892C780.365 146.728 657.678 213.694 694.757 160.675H724.342C724.342 160.675 729.743 210.468 708.959 197.397C697.319 223.307 620.344 227.027 600.562 218.884Z" fill="url(#paint84_linear_1102_420)"/>
<path d="M708.959 197.397V179.931L697.319 187.5C710.933 180.836 721.686 163.374 724.041 160.675H755.459C792.731 185.699 821.663 196.932 847.812 201.47L888.707 190.474L875.835 211.802C848.365 221.503 738.134 227.042 708.959 197.397Z" fill="url(#paint85_linear_1102_420)"/>
<path d="M579.667 201.388V186.682L632.331 191.83C657.194 181.728 678.95 165.24 695.398 144.034H727.378C727.378 144.034 731.132 193.37 708.666 179.242C700.144 212.83 600.776 214.452 579.667 201.388Z" fill="#0D0D1E"/>
<path d="M708.666 179.242V164.536L698.168 173.03C712.883 165.827 724.507 146.952 727.051 144.034H761.012C801.3 171.083 832.574 183.226 860.839 188.131L905.044 176.245V190.951C874.572 211.743 735.473 218.314 708.666 179.242Z" fill="#1C1C35"/>
<path d="M579.667 186.682C627.836 195.131 701.834 129.329 701.834 129.329H727.378C727.378 129.329 731.132 178.664 708.666 164.536C700.144 198.123 600.776 199.746 579.667 186.682Z" fill="#1C1C35"/>
<path d="M708.666 164.536C730.036 169.062 727.051 129.329 727.051 129.329H761.012C823.108 171.018 863.789 177.298 905.044 176.245C874.572 197.037 735.472 203.608 708.666 164.536Z" fill="#272747"/>
<path d="M855.873 282.965H730.548V279.159H855.873V282.965Z" fill="url(#paint86_linear_1102_420)"/>
<path d="M855.873 294.211H730.548V290.404H855.873V294.211Z" fill="url(#paint87_linear_1102_420)"/>
<path d="M855.873 304.495H730.548V300.689H855.873V304.495Z" fill="url(#paint88_linear_1102_420)"/>
<path d="M775.337 304.495H770.817V281.062H775.337V304.495Z" fill="url(#paint89_linear_1102_420)"/>
<path d="M735.069 304.495H730.548V281.062H735.069V304.495Z" fill="url(#paint90_linear_1102_420)"/>
<path d="M815.605 304.495H811.084V281.062H815.605V304.495Z" fill="url(#paint91_linear_1102_420)"/>
<path d="M855.873 304.495H851.353V281.062H855.873V304.495Z" fill="url(#paint92_linear_1102_420)"/>
<path d="M730.549 282.965H628.394V279.159H730.549V282.965Z" fill="url(#paint93_linear_1102_420)"/>
<path d="M730.549 294.211H628.394V290.404H730.549V294.211Z" fill="url(#paint94_linear_1102_420)"/>
<path d="M730.549 304.495H628.394V300.689H730.549V304.495Z" fill="url(#paint95_linear_1102_420)"/>
<path d="M665.459 304.495H660.938V281.062H665.459V304.495Z" fill="url(#paint96_linear_1102_420)"/>
<path d="M632.914 304.495H628.394V281.062H632.914V304.495Z" fill="url(#paint97_linear_1102_420)"/>
<path d="M698.004 304.495H693.483V281.062H698.004V304.495Z" fill="url(#paint98_linear_1102_420)"/>
<path d="M730.549 304.495H726.028V281.062H730.549V304.495Z" fill="url(#paint99_linear_1102_420)"/>
<path d="M701.834 120.467H761.012V129.328H701.834V120.467Z" fill="#272747"/>
<path d="M708.666 111.605H754.18V120.467H708.666V111.605Z" fill="#272747"/>
<path d="M717.103 102.744H745.743V111.605H717.103V102.744Z" fill="#272747"/>
<path d="M727.613 -0.000232697H735.233V102.744H727.613V-0.000232697Z" fill="#272747"/>
<path d="M453.071 711.74H872.945V720.765H453.071V711.74Z" fill="#272747"/>
<path d="M453.071 720.765H884.041V729.79H453.071V720.765Z" fill="#272747"/>
<path d="M453.071 729.79H895.137V738.815H453.071V729.79Z" fill="#272747"/>
<path d="M453.071 738.815H906.233V747.84H453.071V738.815Z" fill="#272747"/>
<path d="M453.071 747.84H917.328V756.865H453.071V747.84Z" fill="#272747"/>
<path d="M453.071 756.865H928.424V765.89H453.071V756.865Z" fill="#272747"/>
<path d="M453.071 765.89H939.52V774.915H453.071V765.89Z" fill="#272747"/>
<path d="M453.071 774.915H950.616V783.94H453.071V774.915Z" fill="#272747"/>
<path d="M453.071 783.94H961.712V792.965H453.071V783.94Z" fill="#272747"/>
<path d="M453.071 792.965H972.808V801.99H453.071V792.965Z" fill="#272747"/>
<path d="M453.071 801.99H983.904V811.015H453.071V801.99Z" fill="#272747"/>
<path d="M453.071 811.015H995V820.04H453.071V811.015Z" fill="#272747"/>
<path d="M453.071 711.74H872.945V713.217H453.071V711.74Z" fill="#3F3E56"/>
<path d="M453.071 720.765H884.041V722.242H453.071V720.765Z" fill="#3F3E56"/>
<path d="M453.071 729.79H895.137V731.267H453.071V729.79Z" fill="#3F3E56"/>
<path d="M453.071 738.815H906.233V740.292H453.071V738.815Z" fill="#3F3E56"/>
<path d="M453.071 747.84H917.328V749.317H453.071V747.84Z" fill="#3F3E56"/>
<path d="M453.071 756.865H928.424V758.342H453.071V756.865Z" fill="#3F3E56"/>
<path d="M453.071 765.89H939.52V767.367H453.071V765.89Z" fill="#3F3E56"/>
<path d="M453.071 774.915H950.616V776.392H453.071V774.915Z" fill="#3F3E56"/>
<path d="M453.071 783.94H961.712V785.417H453.071V783.94Z" fill="#3F3E56"/>
<path d="M453.071 792.965H972.808V794.442H453.071V792.965Z" fill="#3F3E56"/>
<path d="M453.071 801.99H983.904V803.467H453.071V801.99Z" fill="#3F3E56"/>
<path d="M453.071 811.015H995V812.492H453.071V811.015Z" fill="#3F3E56"/>
<path d="M271.525 533.016C278.463 507.882 297.09 491.197 313.576 495.748C324.884 498.869 332.073 511.173 333.237 526.704C333.568 526.424 333.877 526.132 334.215 525.855C353.071 510.421 375.489 506.622 384.286 517.371C393.083 528.119 384.929 549.343 366.074 564.777C365.733 565.055 365.383 565.303 365.041 565.574C368.053 565.855 370.976 566.748 373.631 568.2C376.286 569.652 378.616 571.631 380.478 574.015C388.563 584.903 384.083 602.123 370.622 613.798C389.284 609.134 405.697 611.388 407.884 619.177C409.589 625.247 402.169 632.951 390.122 638.769C396.968 641.4 402.686 648.785 405.406 658.44C407.344 655.672 409.85 653.349 412.756 651.625C417.333 648.999 422.628 647.899 427.872 648.487C427.075 647.58 426.295 646.641 425.55 645.648C415.01 631.598 414.171 614.427 423.679 607.294C433.148 600.189 449.307 605.729 459.851 619.657C468.128 598.652 484.972 585.501 499.818 589.599C510.793 592.628 517.858 604.325 519.33 619.208C521.237 616.582 523.688 614.398 526.516 612.805C529.343 611.212 532.481 610.248 535.716 609.978C550.163 609.173 562.754 624.279 563.837 643.718C563.915 645.106 563.915 646.472 563.874 647.824C576.506 641.195 590.033 641.774 596.12 649.97C601.805 657.626 599.253 669.579 590.744 679.415C594.36 679.501 597.906 680.425 601.102 682.117C604.299 683.809 607.058 686.221 609.161 689.163C609.532 684.33 610.553 679.57 612.198 675.011C619.261 655.298 635.801 643.193 649.14 647.972C661.084 652.251 666.382 668.618 662.298 686.145C682.102 683.679 699.388 690.54 703.731 703.926C707.198 714.612 701.521 726.763 690.214 736.138C704.625 732.119 718.03 735.072 722.422 744.155C727.128 753.887 719.9 767.361 706.026 776.208C720.925 777.754 732.37 786.336 732.553 796.915C732.697 805.226 725.847 812.543 715.716 816.304C724.524 821.997 729.328 829.913 726.698 835.298C725.284 838.193 721.963 839.83 717.667 840.206C720.671 846.952 721.859 854.367 721.112 861.714C723.446 859.458 726.238 857.732 729.299 856.654C732.361 855.576 735.618 855.17 738.85 855.465C753.218 857.178 762.998 874.239 760.694 893.571C760.529 894.951 760.293 896.297 760.018 897.622C773.608 893.284 786.83 896.2 791.402 905.327C796.726 915.954 788.312 930.946 772.608 938.814L766.884 973.406H271.525V533.016Z" fill="url(#paint100_linear_1102_420)"/>
<path d="M396.197 635.31C398.041 633.801 399.885 632.292 401.729 630.783C414.615 645.466 428.837 658.92 444.211 670.973C433.456 655.095 424.125 638.296 416.326 620.775C418.469 619.734 420.613 618.694 422.756 617.653C429.994 631.348 438.231 644.493 447.399 656.98C443 642.522 439.614 627.776 437.265 612.848C439.606 612.401 441.946 611.954 444.286 611.506C446.821 622.643 449.958 633.634 453.683 644.43C456.943 628.509 461.391 612.854 466.989 597.597C469.252 598.344 471.515 599.09 473.777 599.836C467.491 621.358 463.517 643.489 461.922 665.854C462.008 666.056 462.101 666.255 462.187 666.457C467.812 646.087 475.407 626.314 484.863 607.417C487.027 608.413 489.192 609.409 491.357 610.404C484.896 625.835 479.673 641.756 475.736 658.015C484.115 644.22 493.508 631.068 503.839 618.667C505.719 620.131 507.599 621.595 509.479 623.058C494.909 643.155 482.762 664.902 473.29 687.846C473.553 688.123 473.82 688.396 474.085 688.672C485.512 672.201 495.344 654.679 503.447 636.342C505.659 637.229 507.87 638.116 510.081 639.003C504.699 653.823 498.248 668.232 490.777 682.116C503.984 672.48 517.9 663.853 532.404 656.309C533.573 658.385 534.742 660.461 535.91 662.538C519.228 672.702 503.525 684.394 489.004 697.462C506.498 689.603 524.653 683.304 543.255 678.641C543.911 680.931 544.567 683.222 545.223 685.512C530.485 690.284 516.119 696.133 502.239 703.014C517.239 701.171 532.348 700.375 547.458 700.632C547.495 703.015 547.532 705.397 547.569 707.779C527.966 708.989 508.5 711.867 489.385 716.382C478.918 717.567 465.994 721.552 459.309 730.009C456.487 733.578 453.584 737.087 450.6 740.537C449.964 741.275 449.324 742.011 448.68 742.743C448.638 742.324 448.588 741.905 448.547 741.486C448.406 740.015 448.279 738.545 448.158 737.075C447.507 729.176 447.299 721.246 447.071 713.326C446.996 710.747 448.675 692.299 447.539 691.727C426.513 681.138 404.367 672.935 381.516 667.273C382.009 664.942 382.502 662.611 382.995 660.28C398.52 663.029 413.825 666.903 428.788 671.871C417.021 660.52 406.127 648.298 396.197 635.31Z" fill="url(#paint101_linear_1102_420)"/>
<path d="M569.785 754.009C570.088 752.285 570.392 750.561 570.695 748.836C584.913 750.832 599.285 751.505 613.628 750.844C600.023 747.159 586.77 742.279 574.024 736.261C574.719 734.654 575.413 733.046 576.108 731.439C586.707 735.595 597.598 738.965 608.692 741.522C599.309 735.58 590.351 728.991 581.883 721.805C582.972 720.433 584.061 719.062 585.15 717.69C591.902 722.677 598.92 727.293 606.173 731.519C600.353 721.089 595.322 710.238 591.123 699.056C592.741 698.387 594.359 697.717 595.977 697.048C602.798 712.048 611.198 726.279 621.036 739.499C621.181 739.57 621.328 739.636 621.473 739.707C614.836 725.666 609.583 711.012 605.786 695.953C607.469 695.47 609.152 694.986 610.835 694.502C614.638 706.194 619.364 717.565 624.969 728.508C623.019 716.808 621.943 704.978 621.749 693.118C623.498 693.031 625.247 692.945 626.996 692.858C628.52 711.037 632.185 728.974 637.914 746.295C638.193 746.322 638.473 746.346 638.752 746.373C637.217 731.72 634.289 717.246 630.008 703.149C631.665 702.582 633.321 702.015 634.978 701.449C639.088 712.283 642.406 723.402 644.904 734.717C647.638 723.016 651.25 711.539 655.71 700.381C657.356 700.976 659.003 701.572 660.649 702.168C656.234 715.83 653.096 729.871 651.277 744.113C657.25 731.346 664.34 719.132 672.463 707.613C673.926 708.574 675.39 709.536 676.854 710.497C670.935 720.222 665.739 730.369 661.31 740.857C668.779 732.637 676.812 724.948 685.35 717.845C686.513 719.154 687.676 720.463 688.84 721.772C678.502 731.847 669.042 742.785 660.563 754.467C655.302 760.147 650.015 768.564 650.348 776.48C650.488 779.821 650.547 783.168 650.547 786.52C650.548 787.236 650.542 787.952 650.536 788.669C650.312 788.456 650.083 788.246 649.859 788.033C649.075 787.282 648.298 786.525 647.527 785.763C643.376 781.676 639.457 777.36 635.532 773.059C634.254 771.658 626.341 760.579 625.434 760.805C608.646 764.992 592.38 771.045 576.938 778.85C576.095 777.316 575.251 775.782 574.408 774.247C584.372 768.332 594.753 763.15 605.469 758.74C593.472 758.062 581.544 756.48 569.785 754.009Z" fill="url(#paint102_linear_1102_420)"/>
<path d="M623.963 800.792C625.775 824.157 646.853 841.577 671.04 839.701C695.228 837.825 713.367 817.362 711.554 793.997C709.741 770.631 688.664 733.31 664.476 735.186C640.289 737.063 622.15 777.426 623.963 800.792Z" fill="url(#paint103_linear_1102_420)"/>
<path d="M611.245 817.923C593.037 780.192 566.215 747.27 532.941 721.814C397.548 619.122 181.938 664.866 -0.00012207 817.923H611.245Z" fill="#7C2C9D"/>
<path d="M802.57 817.923C776.857 798.333 748.26 782.851 717.8 772.03C616.668 736.39 505.22 756.091 400.227 817.923H802.57Z" fill="url(#paint104_linear_1102_420)"/>
</g>
<defs>
<linearGradient id="paint0_linear_1102_420" x1="654.337" y1="575.916" x2="602.503" y2="711.619" gradientUnits="userSpaceOnUse">
<stop stop-color="#63159B"/>
<stop offset="1" stop-color="#F49DA4"/>
</linearGradient>
<linearGradient id="paint1_linear_1102_420" x1="764.962" y1="576.548" x2="729.044" y2="714.734" gradientUnits="userSpaceOnUse">
<stop stop-color="#63159B"/>
<stop offset="1" stop-color="#F49DA4"/>
</linearGradient>
<linearGradient id="paint2_linear_1102_420" x1="831.122" y1="576.189" x2="778.694" y2="584.923" gradientUnits="userSpaceOnUse">
<stop stop-color="#63159B"/>
<stop offset="1" stop-color="#F49DA4"/>
</linearGradient>
<linearGradient id="paint3_linear_1102_420" x1="736.409" y1="576.189" x2="683.981" y2="584.923" gradientUnits="userSpaceOnUse">
<stop stop-color="#63159B"/>
<stop offset="1" stop-color="#F49DA4"/>
</linearGradient>
<linearGradient id="paint4_linear_1102_420" x1="772.055" y1="633.101" x2="770.616" y2="656.629" gradientUnits="userSpaceOnUse">
<stop stop-color="#63159B"/>
<stop offset="1" stop-color="#F49DA4"/>
</linearGradient>
<linearGradient id="paint5_linear_1102_420" x1="779.514" y1="630.992" x2="801.135" y2="637.561" gradientUnits="userSpaceOnUse">
<stop stop-color="#63159B"/>
<stop offset="1" stop-color="#F49DA4"/>
</linearGradient>
<linearGradient id="paint6_linear_1102_420" x1="647.552" y1="576.189" x2="595.124" y2="584.923" gradientUnits="userSpaceOnUse">
<stop stop-color="#63159B"/>
<stop offset="1" stop-color="#F49DA4"/>
</linearGradient>
<linearGradient id="paint7_linear_1102_420" x1="720.966" y1="576.189" x2="668.538" y2="584.923" gradientUnits="userSpaceOnUse">
<stop stop-color="#63159B"/>
<stop offset="1" stop-color="#F49DA4"/>
</linearGradient>
<linearGradient id="paint8_linear_1102_420" x1="675.231" y1="633.101" x2="673.433" y2="656.58" gradientUnits="userSpaceOnUse">
<stop stop-color="#63159B"/>
<stop offset="1" stop-color="#F49DA4"/>
</linearGradient>
<linearGradient id="paint9_linear_1102_420" x1="639.787" y1="553.202" x2="578.8" y2="712.87" gradientUnits="userSpaceOnUse">
<stop stop-color="#63159B"/>
<stop offset="1" stop-color="#F49DA4"/>
</linearGradient>
<linearGradient id="paint10_linear_1102_420" x1="769.949" y1="553.945" x2="727.687" y2="716.535" gradientUnits="userSpaceOnUse">
<stop stop-color="#63159B"/>
<stop offset="1" stop-color="#F49DA4"/>
</linearGradient>
<linearGradient id="paint11_linear_1102_420" x1="808.314" y1="690.86" x2="808.602" y2="679.644" gradientUnits="userSpaceOnUse">
<stop stop-color="#63159B"/>
<stop offset="1" stop-color="#F49DA4"/>
</linearGradient>
<linearGradient id="paint12_linear_1102_420" x1="808.314" y1="702.105" x2="808.602" y2="690.889" gradientUnits="userSpaceOnUse">
<stop stop-color="#63159B"/>
<stop offset="1" stop-color="#F49DA4"/>
</linearGradient>
<linearGradient id="paint13_linear_1102_420" x1="808.314" y1="712.39" x2="808.602" y2="701.174" gradientUnits="userSpaceOnUse">
<stop stop-color="#63159B"/>
<stop offset="1" stop-color="#F49DA4"/>
</linearGradient>
<linearGradient id="paint14_linear_1102_420" x1="773.622" y1="716.97" x2="788.614" y2="713.547" gradientUnits="userSpaceOnUse">
<stop stop-color="#63159B"/>
<stop offset="1" stop-color="#F49DA4"/>
</linearGradient>
<linearGradient id="paint15_linear_1102_420" x1="733.354" y1="716.97" x2="748.346" y2="713.547" gradientUnits="userSpaceOnUse">
<stop stop-color="#63159B"/>
<stop offset="1" stop-color="#F49DA4"/>
</linearGradient>
<linearGradient id="paint16_linear_1102_420" x1="813.89" y1="716.97" x2="828.882" y2="713.547" gradientUnits="userSpaceOnUse">
<stop stop-color="#63159B"/>
<stop offset="1" stop-color="#F49DA4"/>
</linearGradient>
<linearGradient id="paint17_linear_1102_420" x1="854.158" y1="716.97" x2="869.15" y2="713.547" gradientUnits="userSpaceOnUse">
<stop stop-color="#63159B"/>
<stop offset="1" stop-color="#F49DA4"/>
</linearGradient>
<linearGradient id="paint18_linear_1102_420" x1="691.782" y1="690.86" x2="692.135" y2="679.648" gradientUnits="userSpaceOnUse">
<stop stop-color="#63159B"/>
<stop offset="1" stop-color="#F49DA4"/>
</linearGradient>
<linearGradient id="paint19_linear_1102_420" x1="691.782" y1="702.105" x2="692.135" y2="690.893" gradientUnits="userSpaceOnUse">
<stop stop-color="#63159B"/>
<stop offset="1" stop-color="#F49DA4"/>
</linearGradient>
<linearGradient id="paint20_linear_1102_420" x1="691.782" y1="712.39" x2="692.135" y2="701.178" gradientUnits="userSpaceOnUse">
<stop stop-color="#63159B"/>
<stop offset="1" stop-color="#F49DA4"/>
</linearGradient>
<linearGradient id="paint21_linear_1102_420" x1="663.744" y1="716.97" x2="678.736" y2="713.546" gradientUnits="userSpaceOnUse">
<stop stop-color="#63159B"/>
<stop offset="1" stop-color="#F49DA4"/>
</linearGradient>
<linearGradient id="paint22_linear_1102_420" x1="631.199" y1="716.97" x2="646.191" y2="713.547" gradientUnits="userSpaceOnUse">
<stop stop-color="#63159B"/>
<stop offset="1" stop-color="#F49DA4"/>
</linearGradient>
<linearGradient id="paint23_linear_1102_420" x1="696.288" y1="716.97" x2="711.28" y2="713.547" gradientUnits="userSpaceOnUse">
<stop stop-color="#63159B"/>
<stop offset="1" stop-color="#F49DA4"/>
</linearGradient>
<linearGradient id="paint24_linear_1102_420" x1="728.833" y1="716.97" x2="743.825" y2="713.547" gradientUnits="userSpaceOnUse">
<stop stop-color="#63159B"/>
<stop offset="1" stop-color="#F49DA4"/>
</linearGradient>
<linearGradient id="paint25_linear_1102_420" x1="654.337" y1="440.248" x2="602.504" y2="575.95" gradientUnits="userSpaceOnUse">
<stop stop-color="#63159B"/>
<stop offset="1" stop-color="#F49DA4"/>
</linearGradient>
<linearGradient id="paint26_linear_1102_420" x1="764.962" y1="440.879" x2="729.044" y2="579.065" gradientUnits="userSpaceOnUse">
<stop stop-color="#63159B"/>
<stop offset="1" stop-color="#F49DA4"/>
</linearGradient>
<linearGradient id="paint27_linear_1102_420" x1="831.122" y1="440.521" x2="778.694" y2="449.254" gradientUnits="userSpaceOnUse">
<stop stop-color="#63159B"/>
<stop offset="1" stop-color="#F49DA4"/>
</linearGradient>
<linearGradient id="paint28_linear_1102_420" x1="736.409" y1="440.521" x2="683.981" y2="449.254" gradientUnits="userSpaceOnUse">
<stop stop-color="#63159B"/>
<stop offset="1" stop-color="#F49DA4"/>
</linearGradient>
<linearGradient id="paint29_linear_1102_420" x1="772.055" y1="497.432" x2="770.616" y2="520.961" gradientUnits="userSpaceOnUse">
<stop stop-color="#63159B"/>
<stop offset="1" stop-color="#F49DA4"/>
</linearGradient>
<linearGradient id="paint30_linear_1102_420" x1="779.514" y1="495.323" x2="801.135" y2="501.892" gradientUnits="userSpaceOnUse">
<stop stop-color="#63159B"/>
<stop offset="1" stop-color="#F49DA4"/>
</linearGradient>
<linearGradient id="paint31_linear_1102_420" x1="647.552" y1="440.521" x2="595.124" y2="449.254" gradientUnits="userSpaceOnUse">
<stop stop-color="#63159B"/>
<stop offset="1" stop-color="#F49DA4"/>
</linearGradient>
<linearGradient id="paint32_linear_1102_420" x1="720.966" y1="440.521" x2="668.538" y2="449.254" gradientUnits="userSpaceOnUse">
<stop stop-color="#63159B"/>
<stop offset="1" stop-color="#F49DA4"/>
</linearGradient>
<linearGradient id="paint33_linear_1102_420" x1="675.231" y1="497.432" x2="673.433" y2="520.911" gradientUnits="userSpaceOnUse">
<stop stop-color="#63159B"/>
<stop offset="1" stop-color="#F49DA4"/>
</linearGradient>
<linearGradient id="paint34_linear_1102_420" x1="639.787" y1="417.533" x2="578.8" y2="577.201" gradientUnits="userSpaceOnUse">
<stop stop-color="#63159B"/>
<stop offset="1" stop-color="#F49DA4"/>
</linearGradient>
<linearGradient id="paint35_linear_1102_420" x1="769.949" y1="418.276" x2="727.687" y2="580.866" gradientUnits="userSpaceOnUse">
<stop stop-color="#63159B"/>
<stop offset="1" stop-color="#F49DA4"/>
</linearGradient>
<linearGradient id="paint36_linear_1102_420" x1="808.314" y1="555.191" x2="808.602" y2="543.975" gradientUnits="userSpaceOnUse">
<stop stop-color="#63159B"/>
<stop offset="1" stop-color="#F49DA4"/>
</linearGradient>
<linearGradient id="paint37_linear_1102_420" x1="808.314" y1="566.436" x2="808.602" y2="555.22" gradientUnits="userSpaceOnUse">
<stop stop-color="#63159B"/>
<stop offset="1" stop-color="#F49DA4"/>
</linearGradient>
<linearGradient id="paint38_linear_1102_420" x1="808.314" y1="576.721" x2="808.602" y2="565.506" gradientUnits="userSpaceOnUse">
<stop stop-color="#63159B"/>
<stop offset="1" stop-color="#F49DA4"/>
</linearGradient>
<linearGradient id="paint39_linear_1102_420" x1="773.622" y1="581.301" x2="788.614" y2="577.878" gradientUnits="userSpaceOnUse">
<stop stop-color="#63159B"/>
<stop offset="1" stop-color="#F49DA4"/>
</linearGradient>
<linearGradient id="paint40_linear_1102_420" x1="733.354" y1="581.301" x2="748.346" y2="577.878" gradientUnits="userSpaceOnUse">
<stop stop-color="#63159B"/>
<stop offset="1" stop-color="#F49DA4"/>
</linearGradient>
<linearGradient id="paint41_linear_1102_420" x1="813.89" y1="581.301" x2="828.882" y2="577.878" gradientUnits="userSpaceOnUse">
<stop stop-color="#63159B"/>
<stop offset="1" stop-color="#F49DA4"/>
</linearGradient>
<linearGradient id="paint42_linear_1102_420" x1="854.158" y1="581.301" x2="869.15" y2="577.878" gradientUnits="userSpaceOnUse">
<stop stop-color="#63159B"/>
<stop offset="1" stop-color="#F49DA4"/>
</linearGradient>
<linearGradient id="paint43_linear_1102_420" x1="691.782" y1="555.191" x2="692.135" y2="543.979" gradientUnits="userSpaceOnUse">
<stop stop-color="#63159B"/>
<stop offset="1" stop-color="#F49DA4"/>
</linearGradient>
<linearGradient id="paint44_linear_1102_420" x1="691.782" y1="566.436" x2="692.135" y2="555.224" gradientUnits="userSpaceOnUse">
<stop stop-color="#63159B"/>
<stop offset="1" stop-color="#F49DA4"/>
</linearGradient>
<linearGradient id="paint45_linear_1102_420" x1="691.782" y1="576.721" x2="692.135" y2="565.509" gradientUnits="userSpaceOnUse">
<stop stop-color="#63159B"/>
<stop offset="1" stop-color="#F49DA4"/>
</linearGradient>
<linearGradient id="paint46_linear_1102_420" x1="663.744" y1="581.301" x2="678.736" y2="577.878" gradientUnits="userSpaceOnUse">
<stop stop-color="#63159B"/>
<stop offset="1" stop-color="#F49DA4"/>
</linearGradient>
<linearGradient id="paint47_linear_1102_420" x1="631.199" y1="581.301" x2="646.191" y2="577.878" gradientUnits="userSpaceOnUse">
<stop stop-color="#63159B"/>
<stop offset="1" stop-color="#F49DA4"/>
</linearGradient>
<linearGradient id="paint48_linear_1102_420" x1="696.288" y1="581.301" x2="711.28" y2="577.878" gradientUnits="userSpaceOnUse">
<stop stop-color="#63159B"/>
<stop offset="1" stop-color="#F49DA4"/>
</linearGradient>
<linearGradient id="paint49_linear_1102_420" x1="728.833" y1="581.301" x2="743.825" y2="577.878" gradientUnits="userSpaceOnUse">
<stop stop-color="#63159B"/>
<stop offset="1" stop-color="#F49DA4"/>
</linearGradient>
<linearGradient id="paint50_linear_1102_420" x1="654.337" y1="304.578" x2="602.503" y2="440.281" gradientUnits="userSpaceOnUse">
<stop stop-color="#63159B"/>
<stop offset="1" stop-color="#F49DA4"/>
</linearGradient>
<linearGradient id="paint51_linear_1102_420" x1="764.962" y1="305.21" x2="729.043" y2="443.397" gradientUnits="userSpaceOnUse">
<stop stop-color="#63159B"/>
<stop offset="1" stop-color="#F49DA4"/>
</linearGradient>
<linearGradient id="paint52_linear_1102_420" x1="831.122" y1="304.851" x2="778.694" y2="313.585" gradientUnits="userSpaceOnUse">
<stop stop-color="#63159B"/>
<stop offset="1" stop-color="#F49DA4"/>
</linearGradient>
<linearGradient id="paint53_linear_1102_420" x1="736.409" y1="304.851" x2="683.981" y2="313.585" gradientUnits="userSpaceOnUse">
<stop stop-color="#63159B"/>
<stop offset="1" stop-color="#F49DA4"/>
</linearGradient>
<linearGradient id="paint54_linear_1102_420" x1="772.055" y1="361.763" x2="770.616" y2="385.291" gradientUnits="userSpaceOnUse">
<stop stop-color="#63159B"/>
<stop offset="1" stop-color="#F49DA4"/>
</linearGradient>
<linearGradient id="paint55_linear_1102_420" x1="779.514" y1="359.654" x2="801.135" y2="366.223" gradientUnits="userSpaceOnUse">
<stop stop-color="#63159B"/>
<stop offset="1" stop-color="#F49DA4"/>
</linearGradient>
<linearGradient id="paint56_linear_1102_420" x1="647.552" y1="304.851" x2="595.124" y2="313.584" gradientUnits="userSpaceOnUse">
<stop stop-color="#63159B"/>
<stop offset="1" stop-color="#F49DA4"/>
</linearGradient>
<linearGradient id="paint57_linear_1102_420" x1="720.966" y1="304.851" x2="668.538" y2="313.585" gradientUnits="userSpaceOnUse">
<stop stop-color="#63159B"/>
<stop offset="1" stop-color="#F49DA4"/>
</linearGradient>
<linearGradient id="paint58_linear_1102_420" x1="675.231" y1="361.763" x2="673.433" y2="385.241" gradientUnits="userSpaceOnUse">
<stop stop-color="#63159B"/>
<stop offset="1" stop-color="#F49DA4"/>
</linearGradient>
<linearGradient id="paint59_linear_1102_420" x1="639.787" y1="281.864" x2="578.8" y2="441.532" gradientUnits="userSpaceOnUse">
<stop stop-color="#63159B"/>
<stop offset="1" stop-color="#F49DA4"/>
</linearGradient>
<linearGradient id="paint60_linear_1102_420" x1="769.949" y1="282.607" x2="727.687" y2="445.197" gradientUnits="userSpaceOnUse">
<stop stop-color="#63159B"/>
<stop offset="1" stop-color="#F49DA4"/>
</linearGradient>
<linearGradient id="paint61_linear_1102_420" x1="808.314" y1="419.522" x2="808.602" y2="408.306" gradientUnits="userSpaceOnUse">
<stop stop-color="#63159B"/>
<stop offset="1" stop-color="#F49DA4"/>
</linearGradient>
<linearGradient id="paint62_linear_1102_420" x1="808.314" y1="430.767" x2="808.602" y2="419.551" gradientUnits="userSpaceOnUse">
<stop stop-color="#63159B"/>
<stop offset="1" stop-color="#F49DA4"/>
</linearGradient>
<linearGradient id="paint63_linear_1102_420" x1="808.314" y1="441.052" x2="808.602" y2="429.836" gradientUnits="userSpaceOnUse">
<stop stop-color="#63159B"/>
<stop offset="1" stop-color="#F49DA4"/>
</linearGradient>
<linearGradient id="paint64_linear_1102_420" x1="773.622" y1="445.632" x2="788.614" y2="442.209" gradientUnits="userSpaceOnUse">
<stop stop-color="#63159B"/>
<stop offset="1" stop-color="#F49DA4"/>
</linearGradient>
<linearGradient id="paint65_linear_1102_420" x1="733.354" y1="445.632" x2="748.346" y2="442.209" gradientUnits="userSpaceOnUse">
<stop stop-color="#63159B"/>
<stop offset="1" stop-color="#F49DA4"/>
</linearGradient>
<linearGradient id="paint66_linear_1102_420" x1="813.89" y1="445.632" x2="828.882" y2="442.209" gradientUnits="userSpaceOnUse">
<stop stop-color="#63159B"/>
<stop offset="1" stop-color="#F49DA4"/>
</linearGradient>
<linearGradient id="paint67_linear_1102_420" x1="854.158" y1="445.632" x2="869.15" y2="442.209" gradientUnits="userSpaceOnUse">
<stop stop-color="#63159B"/>
<stop offset="1" stop-color="#F49DA4"/>
</linearGradient>
<linearGradient id="paint68_linear_1102_420" x1="691.782" y1="419.522" x2="692.135" y2="408.31" gradientUnits="userSpaceOnUse">
<stop stop-color="#63159B"/>
<stop offset="1" stop-color="#F49DA4"/>
</linearGradient>
<linearGradient id="paint69_linear_1102_420" x1="691.782" y1="430.767" x2="692.135" y2="419.555" gradientUnits="userSpaceOnUse">
<stop stop-color="#63159B"/>
<stop offset="1" stop-color="#F49DA4"/>
</linearGradient>
<linearGradient id="paint70_linear_1102_420" x1="691.782" y1="441.052" x2="692.135" y2="429.84" gradientUnits="userSpaceOnUse">
<stop stop-color="#63159B"/>
<stop offset="1" stop-color="#F49DA4"/>
</linearGradient>
<linearGradient id="paint71_linear_1102_420" x1="663.744" y1="445.632" x2="678.736" y2="442.209" gradientUnits="userSpaceOnUse">
<stop stop-color="#63159B"/>
<stop offset="1" stop-color="#F49DA4"/>
</linearGradient>
<linearGradient id="paint72_linear_1102_420" x1="631.199" y1="445.632" x2="646.191" y2="442.209" gradientUnits="userSpaceOnUse">
<stop stop-color="#63159B"/>
<stop offset="1" stop-color="#F49DA4"/>
</linearGradient>
<linearGradient id="paint73_linear_1102_420" x1="696.288" y1="445.632" x2="711.28" y2="442.209" gradientUnits="userSpaceOnUse">
<stop stop-color="#63159B"/>
<stop offset="1" stop-color="#F49DA4"/>
</linearGradient>
<linearGradient id="paint74_linear_1102_420" x1="728.833" y1="445.632" x2="743.825" y2="442.209" gradientUnits="userSpaceOnUse">
<stop stop-color="#63159B"/>
<stop offset="1" stop-color="#F49DA4"/>
</linearGradient>
<linearGradient id="paint75_linear_1102_420" x1="654.337" y1="168.91" x2="602.503" y2="304.613" gradientUnits="userSpaceOnUse">
<stop stop-color="#63159B"/>
<stop offset="1" stop-color="#F49DA4"/>
</linearGradient>
<linearGradient id="paint76_linear_1102_420" x1="764.962" y1="169.541" x2="729.043" y2="307.728" gradientUnits="userSpaceOnUse">
<stop stop-color="#63159B"/>
<stop offset="1" stop-color="#F49DA4"/>
</linearGradient>
<linearGradient id="paint77_linear_1102_420" x1="831.122" y1="169.183" x2="778.694" y2="177.916" gradientUnits="userSpaceOnUse">
<stop stop-color="#63159B"/>
<stop offset="1" stop-color="#F49DA4"/>
</linearGradient>
<linearGradient id="paint78_linear_1102_420" x1="736.409" y1="169.183" x2="683.981" y2="177.916" gradientUnits="userSpaceOnUse">
<stop stop-color="#63159B"/>
<stop offset="1" stop-color="#F49DA4"/>
</linearGradient>
<linearGradient id="paint79_linear_1102_420" x1="772.055" y1="226.094" x2="770.616" y2="249.622" gradientUnits="userSpaceOnUse">
<stop stop-color="#63159B"/>
<stop offset="1" stop-color="#F49DA4"/>
</linearGradient>
<linearGradient id="paint80_linear_1102_420" x1="779.514" y1="223.986" x2="801.135" y2="230.554" gradientUnits="userSpaceOnUse">
<stop stop-color="#63159B"/>
<stop offset="1" stop-color="#F49DA4"/>
</linearGradient>
<linearGradient id="paint81_linear_1102_420" x1="647.552" y1="169.183" x2="595.124" y2="177.916" gradientUnits="userSpaceOnUse">
<stop stop-color="#63159B"/>
<stop offset="1" stop-color="#F49DA4"/>
</linearGradient>
<linearGradient id="paint82_linear_1102_420" x1="720.966" y1="169.183" x2="668.538" y2="177.916" gradientUnits="userSpaceOnUse">
<stop stop-color="#63159B"/>
<stop offset="1" stop-color="#F49DA4"/>
</linearGradient>
<linearGradient id="paint83_linear_1102_420" x1="675.231" y1="226.094" x2="673.433" y2="249.573" gradientUnits="userSpaceOnUse">
<stop stop-color="#63159B"/>
<stop offset="1" stop-color="#F49DA4"/>
</linearGradient>
<linearGradient id="paint84_linear_1102_420" x1="639.787" y1="146.195" x2="578.8" y2="305.863" gradientUnits="userSpaceOnUse">
<stop stop-color="#63159B"/>
<stop offset="1" stop-color="#F49DA4"/>
</linearGradient>
<linearGradient id="paint85_linear_1102_420" x1="769.949" y1="146.938" x2="727.687" y2="309.528" gradientUnits="userSpaceOnUse">
<stop stop-color="#63159B"/>
<stop offset="1" stop-color="#F49DA4"/>
</linearGradient>
<linearGradient id="paint86_linear_1102_420" x1="808.314" y1="283.853" x2="808.602" y2="272.638" gradientUnits="userSpaceOnUse">
<stop stop-color="#63159B"/>
<stop offset="1" stop-color="#F49DA4"/>
</linearGradient>
<linearGradient id="paint87_linear_1102_420" x1="808.314" y1="295.099" x2="808.602" y2="283.883" gradientUnits="userSpaceOnUse">
<stop stop-color="#63159B"/>
<stop offset="1" stop-color="#F49DA4"/>
</linearGradient>
<linearGradient id="paint88_linear_1102_420" x1="808.314" y1="305.384" x2="808.602" y2="294.168" gradientUnits="userSpaceOnUse">
<stop stop-color="#63159B"/>
<stop offset="1" stop-color="#F49DA4"/>
</linearGradient>
<linearGradient id="paint89_linear_1102_420" x1="773.622" y1="309.963" x2="788.614" y2="306.541" gradientUnits="userSpaceOnUse">
<stop stop-color="#63159B"/>
<stop offset="1" stop-color="#F49DA4"/>
</linearGradient>
<linearGradient id="paint90_linear_1102_420" x1="733.354" y1="309.963" x2="748.346" y2="306.541" gradientUnits="userSpaceOnUse">
<stop stop-color="#63159B"/>
<stop offset="1" stop-color="#F49DA4"/>
</linearGradient>
<linearGradient id="paint91_linear_1102_420" x1="813.89" y1="309.963" x2="828.882" y2="306.541" gradientUnits="userSpaceOnUse">
<stop stop-color="#63159B"/>
<stop offset="1" stop-color="#F49DA4"/>
</linearGradient>
<linearGradient id="paint92_linear_1102_420" x1="854.158" y1="309.963" x2="869.15" y2="306.541" gradientUnits="userSpaceOnUse">
<stop stop-color="#63159B"/>
<stop offset="1" stop-color="#F49DA4"/>
</linearGradient>
<linearGradient id="paint93_linear_1102_420" x1="691.782" y1="283.853" x2="692.135" y2="272.642" gradientUnits="userSpaceOnUse">
<stop stop-color="#63159B"/>
<stop offset="1" stop-color="#F49DA4"/>
</linearGradient>
<linearGradient id="paint94_linear_1102_420" x1="691.782" y1="295.099" x2="692.135" y2="283.887" gradientUnits="userSpaceOnUse">
<stop stop-color="#63159B"/>
<stop offset="1" stop-color="#F49DA4"/>
</linearGradient>
<linearGradient id="paint95_linear_1102_420" x1="691.782" y1="305.384" x2="692.135" y2="294.172" gradientUnits="userSpaceOnUse">
<stop stop-color="#63159B"/>
<stop offset="1" stop-color="#F49DA4"/>
</linearGradient>
<linearGradient id="paint96_linear_1102_420" x1="663.744" y1="309.963" x2="678.736" y2="306.54" gradientUnits="userSpaceOnUse">
<stop stop-color="#63159B"/>
<stop offset="1" stop-color="#F49DA4"/>
</linearGradient>
<linearGradient id="paint97_linear_1102_420" x1="631.199" y1="309.963" x2="646.191" y2="306.541" gradientUnits="userSpaceOnUse">
<stop stop-color="#63159B"/>
<stop offset="1" stop-color="#F49DA4"/>
</linearGradient>
<linearGradient id="paint98_linear_1102_420" x1="696.288" y1="309.963" x2="711.28" y2="306.541" gradientUnits="userSpaceOnUse">
<stop stop-color="#63159B"/>
<stop offset="1" stop-color="#F49DA4"/>
</linearGradient>
<linearGradient id="paint99_linear_1102_420" x1="728.833" y1="309.963" x2="743.825" y2="306.541" gradientUnits="userSpaceOnUse">
<stop stop-color="#63159B"/>
<stop offset="1" stop-color="#F49DA4"/>
</linearGradient>
<linearGradient id="paint100_linear_1102_420" x1="469.167" y1="1016.05" x2="569.518" y2="550.934" gradientUnits="userSpaceOnUse">
<stop offset="0.687849" stop-color="#FC75A0"/>
<stop offset="1" stop-color="#FF3475"/>
</linearGradient>
<linearGradient id="paint101_linear_1102_420" x1="444.531" y1="563.73" x2="240.022" y2="840.615" gradientUnits="userSpaceOnUse">
<stop stop-color="#63159B"/>
<stop offset="1" stop-color="#F49DA4"/>
</linearGradient>
<linearGradient id="paint102_linear_1102_420" x1="614.965" y1="670.502" x2="483.61" y2="863.661" gradientUnits="userSpaceOnUse">
<stop stop-color="#63159B"/>
<stop offset="1" stop-color="#F49DA4"/>
</linearGradient>
<linearGradient id="paint103_linear_1102_420" x1="671.039" y1="839.701" x2="662.945" y2="735.305" gradientUnits="userSpaceOnUse">
<stop stop-color="white"/>
<stop offset="1" stop-color="#FF92B5"/>
</linearGradient>
<linearGradient id="paint104_linear_1102_420" x1="552.911" y1="739.512" x2="528.321" y2="923.673" gradientUnits="userSpaceOnUse">
<stop stop-color="#63159B"/>
<stop offset="1" stop-color="#F49DA4"/>
</linearGradient>
<clipPath id="clip0_1102_420">
<rect width="995" height="1013.65" fill="white" transform="matrix(-1 0 0 1 995 0)"/>
</clipPath>
</defs>
</svg>
