<svg width="623" height="423" viewBox="0 0 623 423" fill="none" xmlns="http://www.w3.org/2000/svg">
<path d="M274.804 128.304C274.597 133.411 276.426 138.392 279.889 142.154C283.431 146.187 289.384 150.083 299.347 152.286C315.646 155.827 332.278 157.613 348.958 157.614C348.958 157.614 340.427 166.136 345.76 172.001C351.094 177.865 395.908 181.059 408.173 181.596C418.715 182.05 496.355 178.567 523.985 172.827C528.477 171.904 531.661 170.913 532.997 169.867C542.602 162.405 544.201 152.286 529.8 141.094C529.8 141.094 583.668 141.617 602.341 133.095C621.014 124.573 627.422 104.322 619.953 91.5323C612.484 78.7427 600.205 71.8041 576.737 69.1471C553.269 66.4763 485.523 65.4162 474.32 64.3562C463.116 63.2823 313.748 79.2658 298.81 81.9367C283.886 84.5937 273.206 104.322 274.804 128.304Z" fill="url(#paint0_linear_1101_384)"/>
<path style="mix-blend-mode:multiply" opacity="0.45" d="M274.804 128.304C274.597 133.411 276.426 138.392 279.889 142.154H321.755C340.951 142.154 356.427 148.583 352.692 153.098C352.692 153.098 362.352 145.912 370.855 153.098C379.371 160.271 411.907 159.748 440.171 162.942C461.352 165.337 502.308 170.431 523.985 172.827C528.477 171.904 531.661 170.913 532.997 169.867C542.602 162.405 544.201 152.286 529.8 141.094C529.8 141.094 583.668 141.617 602.341 133.095C621.014 124.573 627.422 104.322 619.953 91.5323C612.484 78.7427 600.205 71.8041 576.737 69.1471C553.269 66.4763 485.523 65.4162 474.32 64.3562C463.116 63.2823 313.748 79.2658 298.81 81.9367C283.886 84.5937 273.206 104.322 274.804 128.304Z" fill="url(#paint1_linear_1101_384)"/>
<path d="M71.6095 281.834C73.5037 283.1 75.5944 284.044 77.797 284.629C84.1912 286.047 105.179 285.689 105.179 285.689C105.74 288.579 107.219 291.211 109.396 293.195C111.573 295.179 114.332 296.409 117.265 296.702C127.931 298.12 200.844 298.12 214.004 297.418C227.151 296.702 249.917 293.15 253.83 288.525C257.744 283.913 252.053 278.585 252.053 278.585C252.053 278.585 258.102 277.869 269.127 277.511C279.586 277.181 295.144 273.656 301.58 269.32H301.594C301.923 269.108 302.241 268.878 302.545 268.631C308.236 264.019 298.989 251.23 298.989 251.23C298.989 251.23 255.608 241.276 242.806 239.142C230.004 237.008 116.562 247.678 92.7352 249.096C68.9085 250.514 66.4142 260.812 63.2171 267.571C60.9158 272.403 66.1111 278.337 71.6095 281.834Z" fill="url(#paint2_linear_1101_384)"/>
<path style="mix-blend-mode:multiply" opacity="0.45" d="M71.6095 281.834C77.9761 281.187 85.3763 280.43 90.2409 279.92C93.0173 279.515 95.8513 279.834 98.4684 280.844C101.085 281.855 103.397 283.524 105.179 285.689C105.179 285.689 119.842 281.779 125.974 282.04C132.12 282.316 151.661 284.973 151.661 284.973C160.343 287.223 169.393 287.678 178.257 286.308C192.121 283.913 189.199 284.45 196.131 280.98C203.063 277.511 247.34 275.914 247.34 275.914C248.938 272.183 267.997 268.094 280.95 268.37C289.853 268.562 297.597 269.031 301.58 269.32H301.594C301.923 269.108 302.241 268.878 302.545 268.631C308.236 264.019 298.989 251.23 298.989 251.23C298.989 251.23 255.608 241.276 242.806 239.142C230.004 237.008 116.562 247.678 92.7352 249.096C68.9085 250.514 66.4142 260.812 63.2171 267.571C60.9158 272.403 66.1111 278.337 71.6095 281.834Z" fill="url(#paint3_linear_1101_384)"/>
<path d="M178.258 261.706C178.988 262.436 196.448 273.794 212.874 284.436C227.689 294.018 241.648 303.008 241.648 303.008L342.247 297.501L405.637 316.775L484.5 398L525 423V415L530.5 405.5L525 398V381.411V362.5V336.764L452.491 300.254L438.711 258.953L460.76 205.262L445.601 180.481L434.576 170.844L435.954 148.817L430.442 147.44L424.93 173.598L445.601 203.885L422.174 245.186L429.064 290.617L369.808 238.303L364.295 212.145L372.564 170.844L364.295 110.269H358.783L362.917 147.44L343.625 122.66L336.734 124.036L362.917 165.337L347.497 206.418L346.381 209.392L356.027 247.939L390.479 287.864L342.247 279.604L294.014 283.734L262.319 250.693L252.673 249.316L277.133 279.301L282.99 286.487L241.648 291.994L183.77 261.706H178.258Z" fill="url(#paint4_linear_1101_384)"/>
<path style="mix-blend-mode:multiply" opacity="0.45" d="M433.888 301.232L459.644 338.802L523.5 379L521 355L527.5 358L452.491 300.255L452.519 309.148L433.888 301.232Z" fill="url(#paint5_linear_1101_384)"/>
<g style="mix-blend-mode:overlay" opacity="0.75">
<path d="M346.381 209.392L356.027 247.94L390.479 287.864L394.572 281.518L357.764 247.981L347.497 211.967V206.419L346.381 209.392Z" fill="#E8C5C9"/>
</g>
<g style="mix-blend-mode:overlay" opacity="0.75">
<path d="M422.174 245.187L429.064 290.618L435.114 292.077L424.93 245.545H430.015L426.047 243.672L445.601 203.885L422.174 245.187Z" fill="#E8C5C9"/>
</g>
<path style="mix-blend-mode:multiply" opacity="0.45" d="M512.5 370.5L461.515 355.056L422.041 297.878L366.561 242.249L356.161 209.836L354.026 199.444L362.918 165.338L338.026 126.073L346.156 125.912L362.918 147.441L360.491 125.627L366.375 125.51L372.564 170.845L364.296 212.146L369.808 238.303L429.064 290.618L458.848 331.608L451.913 315.62L475.161 338.002L517.5 351.5L512.5 370.5Z" fill="url(#paint6_linear_1101_384)"/>
<g style="mix-blend-mode:overlay" opacity="0.75">
<path d="M342.247 297.501L405.637 316.775L452.491 386.987L473.162 398.001L534 386.987L454.049 378.245L405.389 311.089L412.445 303.628L400.167 308.432L342.247 297.501Z" fill="#E8C5C9"/>
</g>
<path style="mix-blend-mode:multiply" opacity="0.45" d="M422.036 297.873L456.984 357.718L476.718 368.47L478.33 354.979L455.909 342.795L422.036 297.873Z" fill="url(#paint7_linear_1101_384)"/>
<path style="mix-blend-mode:multiply" opacity="0.45" d="M434.839 251.756L431.641 270.837L436.437 265.193L448.826 314.5L516.5 353V344.5L452.491 305.255L438.711 263.953L460.76 210.262L445.601 185.481L434.577 175.845L435.955 153.817L430.443 152.441L424.93 178.598L455.11 210.303L434.839 251.756Z" fill="url(#paint8_linear_1101_384)"/>
<g style="mix-blend-mode:overlay" opacity="0.75">
<path d="M241.648 303.008L342.247 297.501L340.601 292.083L241.648 303.008Z" fill="#E8C5C9"/>
</g>
<path d="M262.319 250.693L252.673 249.317L277.134 279.301L294.015 283.734L262.319 250.693Z" fill="url(#paint9_linear_1101_384)"/>
<path d="M178.257 261.706C178.988 262.436 196.448 273.794 212.874 284.436L241.648 291.994L183.77 261.706H178.257Z" fill="url(#paint10_linear_1101_384)"/>
<path d="M180.931 116.574C181.105 116.864 181.293 117.144 181.496 117.414C186.291 123.967 199.452 129.543 221.46 133.632C244.404 137.886 243.343 134.692 282.273 137.363C321.217 140.02 329.761 135.229 354.828 132.035C379.399 128.896 386.537 122.687 385.821 111.412C430.924 109.526 493.13 105.327 507.393 101.252C507.393 101.252 548.983 84.4009 554.013 75.1633C559.043 65.9256 568.344 57.0872 545.579 46.6518C533.094 40.9247 522.703 35.294 512.96 31.2189C504.912 27.846 497.319 25.5332 489.354 25.0788C471.701 24.0739 455.702 24.6108 455.702 24.6108C455.702 24.6108 469.882 17.741 450.424 10.3894C438.922 5.90703 427.009 2.55499 414.856 0.380801C408.407 -0.995901 345.499 1.11045 326.082 10.83C306.651 20.5495 302.159 29.7596 288.392 32.8985C274.611 36.0236 259.177 37.0699 251.942 44.2425C244.707 51.4152 237.307 69.271 240.215 76.6363C241.097 78.8528 241.565 81.5787 242.516 84.4835C241.634 84.5248 240.835 84.5662 240.132 84.5937C228.929 85.1306 201.726 85.6675 193.733 93.6662C191.156 96.2268 188.483 98.8012 186.167 101.334C181.275 106.676 178.037 111.88 180.931 116.574Z" fill="url(#paint11_linear_1101_384)"/>
<path style="mix-blend-mode:multiply" opacity="0.45" d="M181.496 117.414C186.291 123.967 199.452 129.543 221.46 133.632C244.404 137.886 243.343 134.692 282.273 137.363C321.217 140.02 329.761 135.229 354.828 132.035C379.399 128.896 386.537 122.687 385.821 111.412C430.924 109.526 493.13 105.327 507.393 101.252C507.393 101.252 548.983 84.4009 554.013 75.1633C559.043 65.9256 568.344 57.0872 545.579 46.6518C533.094 40.9247 522.703 35.294 512.96 31.2189C504.912 27.846 497.319 25.5332 489.354 25.0788C471.701 24.0739 455.702 24.6108 455.702 24.6108C455.702 24.6108 405.678 33.4354 390.037 40.5392C374.383 47.6568 342.384 46.225 342.384 46.225C342.384 46.225 363.716 60.6391 363 69.0645C362.297 77.4899 314.079 89.5773 304.405 91.7112C294.772 93.8176 263.876 100.646 242.833 84.7314C245.19 86.6312 259.521 99.2143 238.534 108.232C223.003 114.895 197.04 116.01 181.496 117.414Z" fill="url(#paint12_linear_1101_384)"/>
<path opacity="0.65" d="M359.45 115.865C368.312 114.491 377.07 112.511 385.661 109.94C385.019 103.358 383.189 76.6949 395.013 71.0998C403.935 66.8775 430.214 65.134 447.046 64.4361C451.829 62.5759 456.8 61.2366 461.871 60.4415C481.646 57.0803 506.151 45.0122 522.871 35.7158C529.794 39.0288 537.21 42.8127 545.579 46.6518C568.344 57.0872 559.043 65.9256 554.013 75.1633C548.983 84.401 507.393 101.252 507.393 101.252C498.237 103.868 469.322 106.533 437.861 108.607C437.804 108.655 437.746 108.712 437.688 108.759C426.308 117.996 385.821 111.412 385.821 111.412C386.537 122.687 379.399 128.896 354.828 132.035C329.761 135.229 321.217 140.02 282.273 137.363C243.343 134.692 244.404 137.886 221.46 133.632C214.865 132.453 208.347 130.878 201.941 128.916C229.184 127.096 330.599 120.157 359.45 115.865Z" fill="url(#paint13_linear_1101_384)"/>
<path d="M349.853 128.373C350.129 128.868 350.446 129.378 350.777 129.887C350.822 129.968 350.873 130.046 350.928 130.121C351.383 130.782 351.838 131.429 352.32 132.076C358.397 140.199 367.217 146.889 386.84 150.538C390.12 151.157 393.703 151.68 397.631 152.107C426.873 155.315 511.94 149.904 530.186 147.385C548.431 144.852 561.73 145.885 568.537 134.926C575.359 123.981 577.701 118.199 566.25 110.311C554.798 102.422 521.628 104.404 521.628 104.404C521.628 104.404 529.828 88.6137 510.066 81.0831C509.129 80.7252 508.137 80.381 507.062 80.0643C506.056 79.7615 504.995 79.4861 503.879 79.2246C503.838 79.2108 503.81 79.2108 503.769 79.197C476.263 72.8642 442.817 70.042 428.375 71.102C413.919 72.1758 400.952 76.4987 399.546 85.5161C398.819 91.1601 400.123 96.8785 403.225 101.651C403.225 101.651 374.341 100.756 361.14 105.52C348.668 109.994 344.341 118.681 349.853 128.373Z" fill="url(#paint14_linear_1101_384)"/>
<path style="mix-blend-mode:multiply" opacity="0.45" d="M349.853 128.373C350.129 128.868 350.446 129.378 350.777 129.887C350.822 129.968 350.873 130.046 350.928 130.121C351.383 130.782 351.838 131.429 352.32 132.076C358.397 140.199 367.217 146.889 386.84 150.538C390.12 151.157 393.703 151.68 397.631 152.107C426.873 155.315 511.94 149.904 530.186 147.385C548.431 144.852 561.73 145.885 568.537 134.926C575.359 123.981 577.701 118.199 566.25 110.31C554.798 102.422 521.628 104.404 521.628 104.404C521.628 104.404 529.828 88.6137 510.066 81.0831C509.129 80.7252 508.137 80.381 507.062 80.0643C506.056 79.7615 504.995 79.4861 503.879 79.2246C503.838 79.2108 503.81 79.2108 503.769 79.197C505.629 82.5562 506.442 86.1494 504.719 89.3984C499.924 98.4571 484.986 104.322 473.782 105.919C462.578 107.516 448.825 107.846 448.825 107.846C448.825 107.846 459.381 114.441 451.912 117.635C444.733 120.718 423.951 126.253 405.417 104.377C408.214 108.686 410.97 117.208 394.833 122.962C379.275 128.524 361.167 128.483 349.853 128.373Z" fill="url(#paint15_linear_1101_384)"/>
<path opacity="0.65" d="M386.84 150.538C390.12 151.157 393.703 151.68 397.631 152.107C426.873 155.315 511.94 149.904 530.186 147.385C548.431 144.852 561.73 145.885 568.537 134.926C575.359 123.981 577.701 118.199 566.25 110.311C554.798 102.422 521.628 104.404 521.628 104.404C521.628 104.404 530.145 120.126 506.676 121.544C483.208 122.976 484.627 132.214 463.295 140.736C449.018 146.435 411.177 149.285 386.84 150.538Z" fill="url(#paint16_linear_1101_384)"/>
<path d="M2.638 241.599C10.6523 255.303 9.84468 265.161 28.6846 267.37C47.5245 269.559 64.3609 263.525 70.3717 265.713C76.3824 267.901 69.9678 272.852 90.8113 276.676C111.655 280.522 140.917 274.488 156.945 277.228C172.989 279.969 203.851 272.852 214.661 271.195C225.486 269.559 233.501 277.228 247.93 264.63C262.359 252.01 272.392 240.494 271.988 230.636C271.105 216.44 313.5 203.208 262.25 190.651C241 154.958 224.583 181.635 214.661 176.5C214.661 176.5 191.744 144.605 172.5 143.5C153.256 142.416 136.506 154.427 120.073 154.958C103.64 155.511 86.4003 155.51 76.7862 161.544C67.1721 167.578 62.3573 172.507 61.1614 181.282C59.9499 190.056 61.9535 203.208 61.9535 203.208C61.9535 203.208 42.7253 205.417 38.7026 206.501C34.6954 207.606 23.4815 207.606 15.0633 216.38C6.64516 225.155 -5.37634 227.895 2.638 241.599Z" fill="url(#paint17_linear_1101_384)"/>
<path d="M33.3408 254.782C40.4516 263.661 39.735 270.049 56.4509 271.481C73.1667 272.899 88.1049 268.989 93.438 270.407C98.7711 271.825 93.0797 275.033 111.573 277.511C130.067 280.003 156.029 276.093 170.251 277.869C184.486 279.645 211.868 275.033 221.46 273.959C231.065 272.899 238.175 277.869 250.978 269.705C263.78 261.528 272.682 254.066 272.324 247.678C271.54 238.479 268.579 229.599 263.683 221.768C223.044 220.282 170.554 219.277 169.631 223.833C168.115 231.295 160.66 238.867 160.66 238.867C160.66 238.867 184.128 247.678 183.522 250.872C182.929 254.066 159.047 260.991 137.178 256.737C115.308 252.469 131.321 244.47 131.321 244.47C121.485 245.303 111.58 244.554 101.982 242.254C85.4452 238.426 85.9689 229.905 85.9689 229.905C85.9689 229.905 68.9085 231.336 65.3393 232.039C61.784 232.754 51.8344 232.754 44.3653 238.44C36.8962 244.126 26.23 245.902 33.3408 254.782Z" fill="url(#paint18_linear_1101_384)"/>
<path d="M43.299 239.209C42.0895 246.257 46.3528 255.903 56.0994 254.135C67.4794 252.07 69.9688 257.976 85.6164 261.253C101.264 264.531 100.553 255.844 100.553 255.844C105.245 257.958 110.127 259.623 115.133 260.818C124.735 263.305 151.667 262.595 151.667 262.595L137.538 268.372C137.538 268.372 160.298 266.503 166.344 265.924C169.826 265.59 182.741 265.244 195.109 265.222C207.792 257.013 201.941 242.249 201.941 242.249C201.941 242.249 223.956 232.041 236.758 233.658C245.005 234.7 251.996 239.211 258.14 245.88C262.305 243.507 266.619 241.407 271.057 239.593C271.698 242.249 272.121 244.953 272.324 247.678C272.682 254.066 263.78 261.527 250.978 269.705C238.175 277.869 231.065 272.899 221.46 273.959C211.868 275.033 184.486 279.645 170.251 277.869C156.029 276.093 130.067 280.003 111.573 277.511C93.0797 275.033 98.7711 271.825 93.438 270.407C88.1049 268.989 73.1667 272.899 56.4509 271.481C39.735 270.049 40.4516 263.661 33.3408 254.782C26.5619 246.316 35.9376 244.305 43.299 239.209Z" fill="url(#paint19_linear_1101_384)"/>
<path d="M158.84 225.273C163.572 233.519 164.509 244.519 177.751 246.365C190.994 248.195 201.41 249.103 201.41 249.103C201.41 249.103 195.725 256.895 207.078 263.31C218.431 269.726 239.247 270.195 263.358 271.102C287.485 272.025 306.88 272.025 320.591 265.141C329.664 260.602 333.334 255.881 334.802 253.188C344.343 252.341 352.791 251.524 357.008 250.934C370.266 249.103 385.866 245.442 381.134 238.103C376.403 230.78 364.581 225.273 347.56 222.534C343.703 221.899 340.517 221.354 337.659 220.9C335.793 217.947 333.174 215.509 330.054 213.819C305.459 198.704 258.627 199.612 236.405 201.912C214.168 204.197 193.836 203.274 179.641 208.781C169.412 212.745 160.636 215.287 158.341 219.493C157.888 220.413 157.695 221.433 157.783 222.449C157.871 223.464 158.236 224.439 158.84 225.273Z" fill="url(#paint20_linear_1101_384)"/>
<path style="mix-blend-mode:multiply" opacity="0.45" d="M185.07 229.441C188.239 235.14 189.479 242.285 195.019 246.113C197.028 247.485 199.341 248.35 201.758 248.632C213.444 250.298 222.635 251.124 222.635 251.124C222.635 251.124 217.619 258.214 227.638 264.051C237.656 269.888 256.026 270.315 277.303 271.141C298.594 271.981 315.709 271.981 327.809 265.717C335.815 261.587 339.054 257.291 340.349 254.841C348.769 254.07 356.224 253.327 359.945 252.79C371.645 251.124 385.412 247.792 381.236 241.115C378.88 237.706 375.667 234.976 371.92 233.199C371.919 233.199 371.917 233.199 371.915 233.198C371.913 233.198 371.912 233.197 371.911 233.195C371.909 233.194 371.908 233.192 371.908 233.191C371.907 233.189 371.907 233.187 371.907 233.185C365.51 230.055 358.66 227.95 351.608 226.949C348.204 226.371 345.393 225.875 342.871 225.462C342.871 225.462 321.718 233.034 302.521 235.168C283.311 237.288 263.578 226.274 263.578 226.274C255.291 229.849 246.445 231.955 237.436 232.497C223.462 233.461 196.383 228.326 184.629 224.182C184.229 225.019 184.059 225.947 184.137 226.871C184.214 227.795 184.536 228.682 185.07 229.441V229.441Z" fill="url(#paint21_linear_1101_384)"/>
<path d="M201.758 248.632C213.444 250.298 222.635 251.124 222.635 251.124C222.635 251.124 217.619 258.214 227.638 264.051C237.656 269.888 256.026 270.315 277.303 271.141C298.594 271.981 315.709 271.981 327.809 265.717C335.815 261.587 339.054 257.291 340.349 254.841C348.769 254.07 356.224 253.327 359.945 252.79C371.645 251.124 385.412 247.792 381.236 241.115C378.88 237.706 375.667 234.976 371.92 233.199C372.224 233.681 377.46 242.299 362.936 244.474C347.997 246.705 331.502 243.153 331.502 243.153C331.502 243.153 332.37 258.407 308.392 259.742C284.4 261.077 256.108 260.747 255.392 257.539C254.689 254.345 264.997 250.078 264.997 250.078C264.997 250.078 242.245 250.959 233.343 247.861C228.108 246.019 222.782 244.447 217.385 243.153C217.385 243.153 206.044 246.966 195.019 246.113C197.028 247.485 199.34 248.35 201.758 248.632Z" fill="url(#paint22_linear_1101_384)"/>
<defs>
<linearGradient id="paint0_linear_1101_384" x1="397.124" y1="193.346" x2="466.372" y2="80.3068" gradientUnits="userSpaceOnUse">
<stop stop-color="#EC5393"/>
<stop offset="1" stop-color="#82288C"/>
</linearGradient>
<linearGradient id="paint1_linear_1101_384" x1="455.301" y1="68.3752" x2="437.199" y2="190.418" gradientUnits="userSpaceOnUse">
<stop stop-color="#80288E"/>
<stop offset="1" stop-color="#7F298A" stop-opacity="0"/>
</linearGradient>
<linearGradient id="paint2_linear_1101_384" x1="-42751" y1="17426.9" x2="-43619.7" y2="11598.8" gradientUnits="userSpaceOnUse">
<stop stop-color="#EC5393"/>
<stop offset="1" stop-color="#82288C"/>
</linearGradient>
<linearGradient id="paint3_linear_1101_384" x1="-49999.2" y1="11635.4" x2="-49864" y2="13614.5" gradientUnits="userSpaceOnUse">
<stop stop-color="#80288E"/>
<stop offset="1" stop-color="#7F298A" stop-opacity="0"/>
</linearGradient>
<linearGradient id="paint4_linear_1101_384" x1="339.018" y1="269.181" x2="368.302" y2="135.406" gradientUnits="userSpaceOnUse">
<stop stop-color="#5E558C"/>
<stop offset="1" stop-color="#2D265C"/>
</linearGradient>
<linearGradient id="paint5_linear_1101_384" x1="481.43" y1="324.388" x2="433.887" y2="324.388" gradientUnits="userSpaceOnUse">
<stop stop-color="#5E558C" stop-opacity="0"/>
<stop offset="1" stop-color="#2D265C"/>
</linearGradient>
<linearGradient id="paint6_linear_1101_384" x1="-18366.5" y1="59341.8" x2="-33238" y2="30931.3" gradientUnits="userSpaceOnUse">
<stop stop-color="#5E558C" stop-opacity="0"/>
<stop offset="1" stop-color="#2D265C"/>
</linearGradient>
<linearGradient id="paint7_linear_1101_384" x1="-5792.41" y1="18912.9" x2="-7849.41" y2="15802.5" gradientUnits="userSpaceOnUse">
<stop stop-color="#5E558C" stop-opacity="0"/>
<stop offset="1" stop-color="#2D265C"/>
</linearGradient>
<linearGradient id="paint8_linear_1101_384" x1="-6421.89" y1="40912" x2="-8487.59" y2="21693.1" gradientUnits="userSpaceOnUse">
<stop stop-color="#5E558C" stop-opacity="0"/>
<stop offset="1" stop-color="#2D265C"/>
</linearGradient>
<linearGradient id="paint9_linear_1101_384" x1="-9911.24" y1="7649.15" x2="-10065.4" y2="7073.02" gradientUnits="userSpaceOnUse">
<stop stop-color="#5E558C" stop-opacity="0"/>
<stop offset="1" stop-color="#2D265C"/>
</linearGradient>
<linearGradient id="paint10_linear_1101_384" x1="-10388.8" y1="8661.68" x2="-10632" y2="8057.76" gradientUnits="userSpaceOnUse">
<stop stop-color="#5E558C" stop-opacity="0"/>
<stop offset="1" stop-color="#2D265C"/>
</linearGradient>
<linearGradient id="paint11_linear_1101_384" x1="260.976" y1="-8.15015" x2="391.736" y2="105.666" gradientUnits="userSpaceOnUse">
<stop stop-color="#F0DDE0"/>
<stop offset="1" stop-color="#FC75A0"/>
</linearGradient>
<linearGradient id="paint12_linear_1101_384" x1="402.665" y1="126.814" x2="332.334" y2="40.058" gradientUnits="userSpaceOnUse">
<stop stop-color="#EE4D9B"/>
<stop offset="1" stop-color="#FC75A0" stop-opacity="0"/>
</linearGradient>
<linearGradient id="paint13_linear_1101_384" x1="-16736.9" y1="15540.6" x2="-17341.2" y2="10752.9" gradientUnits="userSpaceOnUse">
<stop stop-color="#80288E"/>
<stop offset="1" stop-color="#7F298A" stop-opacity="0"/>
</linearGradient>
<linearGradient id="paint14_linear_1101_384" x1="-11156.6" y1="7404.54" x2="-8603.97" y2="15401.9" gradientUnits="userSpaceOnUse">
<stop stop-color="#F0DDE0"/>
<stop offset="1" stop-color="#FC75A0"/>
</linearGradient>
<linearGradient id="paint15_linear_1101_384" x1="479.517" y1="166.311" x2="451.824" y2="99.1441" gradientUnits="userSpaceOnUse">
<stop offset="0.18428" stop-color="#EE4D9B"/>
<stop offset="1" stop-color="#FC75A0" stop-opacity="0"/>
</linearGradient>
<linearGradient id="paint16_linear_1101_384" x1="5430.64" y1="8829.95" x2="5134.82" y2="6858.82" gradientUnits="userSpaceOnUse">
<stop stop-color="#80288E"/>
<stop offset="1" stop-color="#7F298A" stop-opacity="0"/>
</linearGradient>
<linearGradient id="paint17_linear_1101_384" x1="-61587.2" y1="23745.3" x2="-61496.8" y2="32462.6" gradientUnits="userSpaceOnUse">
<stop stop-color="#FC75A0"/>
<stop offset="1" stop-color="#FC75A0"/>
</linearGradient>
<linearGradient id="paint18_linear_1101_384" x1="-55010.3" y1="15882.3" x2="-54956.3" y2="13199.7" gradientUnits="userSpaceOnUse">
<stop offset="0.18428" stop-color="#EE4D9B"/>
<stop offset="1" stop-color="#FC75A0" stop-opacity="0"/>
</linearGradient>
<linearGradient id="paint19_linear_1101_384" x1="-55085.6" y1="12192.4" x2="-55057.3" y2="10775.2" gradientUnits="userSpaceOnUse">
<stop stop-color="#80288E"/>
<stop offset="1" stop-color="#7F298A" stop-opacity="0"/>
</linearGradient>
<linearGradient id="paint20_linear_1101_384" x1="-32454" y1="14038.8" x2="-32265" y2="17998.4" gradientUnits="userSpaceOnUse">
<stop stop-color="#F0DDE0"/>
<stop offset="1" stop-color="#FC75A0"/>
</linearGradient>
<linearGradient id="paint21_linear_1101_384" x1="-29217" y1="12233.7" x2="-29096.6" y2="10181" gradientUnits="userSpaceOnUse">
<stop offset="0.18428" stop-color="#EE4D9B"/>
<stop offset="1" stop-color="#FC75A0" stop-opacity="0"/>
</linearGradient>
<linearGradient id="paint22_linear_1101_384" x1="-24628.4" y1="10117.9" x2="-24667.9" y2="8931.35" gradientUnits="userSpaceOnUse">
<stop stop-color="#80288E"/>
<stop offset="1" stop-color="#7F298A" stop-opacity="0"/>
</linearGradient>
</defs>
</svg>
