<svg width="560" height="417" viewBox="0 0 560 417" fill="none" xmlns="http://www.w3.org/2000/svg">
<mask id="mask0_217_1482" style="mask-type:alpha" maskUnits="userSpaceOnUse" x="0" y="0" width="560" height="417">
<rect x="0.559814" y="0.337479" width="558.662" height="416.237" fill="#C4C4C4"/>
</mask>
<g mask="url(#mask0_217_1482)">
<path d="M496.801 221.568L500.194 216.626L487.354 217.881C449.418 202.553 481.75 220.2 471.978 206.228H464.181C464.181 206.228 462.758 219.35 468.235 215.906C471.303 222.734 491.588 223.714 496.801 221.568Z" fill="#992B3B"/>
<path d="M468.235 215.906V211.303L471.303 213.297C467.715 211.541 464.881 206.94 464.261 206.228H455.981C446.159 212.823 438.534 215.783 431.643 216.979L420.866 214.081L424.258 219.702C431.497 222.258 460.547 223.718 468.235 215.906Z" fill="#BA3A47"/>
<path d="M490.385 210.435H462.833V244.454H490.385V210.435Z" fill="#DDD3D4"/>
<path d="M462.833 210.435H428.677V244.454H462.833V210.435Z" fill="#FDFDFD"/>
<path d="M448.283 228.78H442.852V243.465H448.283V228.78Z" fill="#272747"/>
<path d="M442.852 228.78H441.183V243.465H442.852V228.78Z" fill="#FFBA78"/>
<path d="M449.953 228.78H448.284V243.465H449.953V228.78Z" fill="#FFBA78"/>
<path d="M456.385 232.645V228.78H451.863V232.645H456.385Z" fill="#FFBA78"/>
<path d="M439.363 232.645V228.78H434.841V232.645H439.363Z" fill="#FFBA78"/>
<path d="M433.465 210.435H428.677V244.454H433.465V210.435Z" fill="#BA3A47"/>
<path d="M462.833 210.435H458.044V244.454H462.833V210.435Z" fill="#BA3A47"/>
<path d="M462.981 220.723H428.677V223.207H462.981V220.723Z" fill="#BA3A47"/>
<path d="M447.071 222.111V215.203H444.587V222.111H447.071Z" fill="#BA3A47"/>
<path d="M490.385 210.435H485.597V244.453H490.385V210.435Z" fill="#992B3B"/>
<path d="M467.622 210.435H462.833V244.453H467.622V210.435Z" fill="#992B3B"/>
<path d="M490.385 220.723H462.981V223.207H490.385V220.723Z" fill="#992B3B"/>
<path d="M503.138 217.908L507.129 212.093L492.022 213.57C447.386 195.535 485.428 216.299 473.931 199.859H464.757C464.757 199.859 463.083 215.298 469.527 211.246C473.136 219.279 497.004 220.433 503.138 217.908Z" fill="#BA3A47"/>
<path d="M469.528 211.246V205.83L473.137 208.177C468.916 206.11 465.581 200.696 464.851 199.859H455.109C443.552 207.618 434.581 211.101 426.473 212.508L413.793 209.099L417.784 215.712C426.302 218.72 460.481 220.438 469.528 211.246Z" fill="#FF4E53"/>
<path d="M509.618 212.483V207.923L493.288 209.519C485.578 206.387 478.833 201.275 473.733 194.699H463.817C463.817 194.699 462.652 209.997 469.619 205.616C472.261 216.031 503.072 216.534 509.618 212.483Z" fill="#0D0D1E"/>
<path d="M469.619 205.616V201.056L472.874 203.69C468.311 201.457 464.707 195.604 463.918 194.699H453.388C440.895 203.086 431.198 206.851 422.434 208.372L408.728 204.687V209.247C418.176 215.694 461.307 217.731 469.619 205.616Z" fill="#1C1C35"/>
<path d="M509.618 207.923C494.682 210.543 471.737 190.139 471.737 190.139H463.817C463.817 190.139 462.652 205.437 469.619 201.056C472.261 211.471 503.072 211.974 509.618 207.923Z" fill="#1C1C35"/>
<path d="M469.619 201.056C462.992 202.46 463.918 190.139 463.918 190.139H453.388C434.133 203.066 421.519 205.013 408.728 204.687C418.176 211.134 461.307 213.171 469.619 201.056Z" fill="#272747"/>
<path d="M423.974 237.778H462.833V236.597H423.974V237.778Z" fill="#FF4E53"/>
<path d="M423.974 241.264H462.833V240.084H423.974V241.264Z" fill="#FF4E53"/>
<path d="M423.974 244.453H462.833V243.273H423.974V244.453Z" fill="#FF4E53"/>
<path d="M448.945 244.453H450.347V237.187H448.945V244.453Z" fill="#FF4E53"/>
<path d="M461.432 244.453H462.833V237.187H461.432V244.453Z" fill="#FF4E53"/>
<path d="M436.46 244.453H437.861V237.187H436.46V244.453Z" fill="#FF4E53"/>
<path d="M423.974 244.453H425.376V237.187H423.974V244.453Z" fill="#FF4E53"/>
<path d="M462.834 237.778H494.509V236.597H462.834V237.778Z" fill="#BA3A47"/>
<path d="M462.834 241.264H494.509V240.084H462.834V241.264Z" fill="#BA3A47"/>
<path d="M462.834 244.453H494.509V243.273H462.834V244.453Z" fill="#BA3A47"/>
<path d="M483.016 244.453H484.417V237.187H483.016V244.453Z" fill="#BA3A47"/>
<path d="M493.107 244.453H494.509V237.187H493.107V244.453Z" fill="#BA3A47"/>
<path d="M472.924 244.453H474.326V237.187H472.924V244.453Z" fill="#BA3A47"/>
<path d="M462.833 244.453H464.235V237.187H462.833V244.453Z" fill="#BA3A47"/>
<path d="M496.801 179.501L500.194 174.559L487.354 175.814C449.418 160.486 481.75 178.133 471.978 164.161H464.181C464.181 164.161 462.758 177.283 468.235 173.839C471.303 180.667 491.588 181.647 496.801 179.501Z" fill="#992B3B"/>
<path d="M468.235 173.839V169.236L471.303 171.23C467.715 169.474 464.881 164.872 464.261 164.161H455.981C446.159 170.756 438.534 173.716 431.643 174.912L420.866 172.014L424.258 177.635C431.497 180.191 460.547 181.651 468.235 173.839Z" fill="#BA3A47"/>
<path d="M490.385 168.368H462.833V202.387H490.385V168.368Z" fill="#DDD3D4"/>
<path d="M462.833 168.368H428.677V202.387H462.833V168.368Z" fill="#FDFDFD"/>
<path d="M448.283 186.713H442.852V201.398H448.283V186.713Z" fill="#272747"/>
<path d="M442.852 186.713H441.183V201.398H442.852V186.713Z" fill="#FFBA78"/>
<path d="M449.953 186.713H448.284V201.398H449.953V186.713Z" fill="#FFBA78"/>
<path d="M456.385 190.578V186.713H451.863V190.578H456.385Z" fill="#FFBA78"/>
<path d="M439.363 190.578V186.713H434.841V190.578H439.363Z" fill="#FFBA78"/>
<path d="M433.465 168.368H428.677V202.387H433.465V168.368Z" fill="#BA3A47"/>
<path d="M462.833 168.368H458.044V202.387H462.833V168.368Z" fill="#BA3A47"/>
<path d="M462.981 178.656H428.677V181.14H462.981V178.656Z" fill="#BA3A47"/>
<path d="M447.071 180.044V173.136H444.587V180.044H447.071Z" fill="#BA3A47"/>
<path d="M490.385 168.368H485.597V202.387H490.385V168.368Z" fill="#992B3B"/>
<path d="M467.622 168.368H462.833V202.387H467.622V168.368Z" fill="#992B3B"/>
<path d="M490.385 178.656H462.981V181.14H490.385V178.656Z" fill="#992B3B"/>
<path d="M503.138 175.841L507.129 170.026L492.022 171.502C447.386 153.467 485.428 174.231 473.931 157.792H464.757C464.757 157.792 463.083 173.231 469.527 169.178C473.136 177.212 497.004 178.366 503.138 175.841Z" fill="#BA3A47"/>
<path d="M469.528 169.178V163.763L473.137 166.11C468.916 164.043 465.581 158.629 464.851 157.792H455.109C443.552 165.551 434.581 169.034 426.473 170.441L413.793 167.032L417.784 173.645C426.302 176.653 460.481 178.37 469.528 169.178Z" fill="#FF4E53"/>
<path d="M509.618 170.416V165.856L493.288 167.452C485.578 164.32 478.833 159.208 473.733 152.632H463.817C463.817 152.632 462.652 167.93 469.619 163.549C472.261 173.964 503.072 174.467 509.618 170.416Z" fill="#0D0D1E"/>
<path d="M469.619 163.549V158.989L472.874 161.623C468.311 159.39 464.707 153.537 463.918 152.632H453.388C440.895 161.019 431.198 164.784 422.434 166.305L408.728 162.62V167.18C418.176 173.627 461.307 175.664 469.619 163.549Z" fill="#1C1C35"/>
<path d="M509.618 165.856C494.682 168.476 471.737 148.072 471.737 148.072H463.817C463.817 148.072 462.652 163.37 469.619 158.989C472.261 169.404 503.072 169.907 509.618 165.856Z" fill="#1C1C35"/>
<path d="M469.619 158.989C462.992 160.393 463.918 148.072 463.918 148.072H453.388C434.133 160.999 421.519 162.946 408.728 162.62C418.176 169.067 461.307 171.104 469.619 158.989Z" fill="#272747"/>
<path d="M423.974 195.711H462.833V194.53H423.974V195.711Z" fill="#FF4E53"/>
<path d="M423.974 199.197H462.833V198.017H423.974V199.197Z" fill="#FF4E53"/>
<path d="M423.974 202.387H462.833V201.206H423.974V202.387Z" fill="#FF4E53"/>
<path d="M448.945 202.387H450.347V195.12H448.945V202.387Z" fill="#FF4E53"/>
<path d="M461.432 202.387H462.833V195.12H461.432V202.387Z" fill="#FF4E53"/>
<path d="M436.46 202.387H437.861V195.12H436.46V202.387Z" fill="#FF4E53"/>
<path d="M423.974 202.387H425.376V195.12H423.974V202.387Z" fill="#FF4E53"/>
<path d="M462.834 195.711H494.509V194.53H462.834V195.711Z" fill="#BA3A47"/>
<path d="M462.834 199.197H494.509V198.017H462.834V199.197Z" fill="#BA3A47"/>
<path d="M462.834 202.387H494.509V201.206H462.834V202.387Z" fill="#BA3A47"/>
<path d="M483.016 202.387H484.417V195.121H483.016V202.387Z" fill="#BA3A47"/>
<path d="M493.107 202.387H494.509V195.121H493.107V202.387Z" fill="#BA3A47"/>
<path d="M472.924 202.387H474.326V195.121H472.924V202.387Z" fill="#BA3A47"/>
<path d="M462.833 202.387H464.235V195.121H462.833V202.387Z" fill="#BA3A47"/>
<path d="M496.801 137.434L500.194 132.492L487.354 133.747C449.418 118.419 481.75 136.066 471.978 122.094H464.181C464.181 122.094 462.758 135.216 468.235 131.772C471.303 138.6 491.588 139.58 496.801 137.434Z" fill="#992B3B"/>
<path d="M468.235 131.772V127.169L471.303 129.164C467.715 127.407 464.881 122.806 464.261 122.094H455.981C446.159 128.689 438.534 131.649 431.643 132.845L420.866 129.947L424.258 135.568C431.497 138.124 460.547 139.584 468.235 131.772Z" fill="#BA3A47"/>
<path d="M490.385 126.301H462.833V160.32H490.385V126.301Z" fill="#DDD3D4"/>
<path d="M462.833 126.301H428.677V160.32H462.833V126.301Z" fill="#FDFDFD"/>
<path d="M448.283 144.647H442.852V159.332H448.283V144.647Z" fill="#272747"/>
<path d="M442.852 144.647H441.183V159.332H442.852V144.647Z" fill="#FFBA78"/>
<path d="M449.953 144.647H448.284V159.332H449.953V144.647Z" fill="#FFBA78"/>
<path d="M456.385 148.511V144.647H451.863V148.511H456.385Z" fill="#FFBA78"/>
<path d="M439.363 148.511V144.647H434.841V148.511H439.363Z" fill="#FFBA78"/>
<path d="M433.465 126.301H428.677V160.32H433.465V126.301Z" fill="#BA3A47"/>
<path d="M462.833 126.301H458.044V160.32H462.833V126.301Z" fill="#BA3A47"/>
<path d="M462.981 136.589H428.677V139.073H462.981V136.589Z" fill="#BA3A47"/>
<path d="M447.071 137.977V131.069H444.587V137.977H447.071Z" fill="#BA3A47"/>
<path d="M490.385 126.301H485.597V160.32H490.385V126.301Z" fill="#992B3B"/>
<path d="M467.622 126.301H462.833V160.32H467.622V126.301Z" fill="#992B3B"/>
<path d="M490.385 136.589H462.981V139.073H490.385V136.589Z" fill="#992B3B"/>
<path d="M503.138 133.774L507.129 127.959L492.022 129.436C447.386 111.401 485.428 132.165 473.931 115.725H464.757C464.757 115.725 463.083 131.164 469.527 127.112C473.136 135.145 497.004 136.299 503.138 133.774Z" fill="#BA3A47"/>
<path d="M469.528 127.112V121.696L473.137 124.043C468.916 121.976 465.581 116.562 464.851 115.725H455.109C443.552 123.484 434.581 126.967 426.473 128.375L413.793 124.965L417.784 131.578C426.302 134.586 460.481 136.304 469.528 127.112Z" fill="#FF4E53"/>
<path d="M509.618 128.349V123.789L493.288 125.385C485.578 122.253 478.833 117.141 473.733 110.565H463.817C463.817 110.565 462.652 125.863 469.619 121.482C472.261 131.897 503.072 132.4 509.618 128.349Z" fill="#0D0D1E"/>
<path d="M469.619 121.482V116.922L472.874 119.556C468.311 117.323 464.707 111.47 463.918 110.565H453.388C440.895 118.952 431.198 122.718 422.434 124.238L408.728 120.553V125.113C418.176 131.56 461.307 133.597 469.619 121.482Z" fill="#1C1C35"/>
<path d="M509.618 123.789C494.682 126.409 471.737 106.006 471.737 106.006H463.817C463.817 106.006 462.652 121.303 469.619 116.922C472.261 127.337 503.072 127.84 509.618 123.789Z" fill="#1C1C35"/>
<path d="M469.619 116.922C462.992 118.326 463.918 106.006 463.918 106.006H453.388C434.133 118.932 421.519 120.879 408.728 120.553C418.176 127 461.307 129.037 469.619 116.922Z" fill="#272747"/>
<path d="M423.974 153.644H462.833V152.463H423.974V153.644Z" fill="#FF4E53"/>
<path d="M423.974 157.13H462.833V155.95H423.974V157.13Z" fill="#FF4E53"/>
<path d="M423.974 160.32H462.833V159.139H423.974V160.32Z" fill="#FF4E53"/>
<path d="M448.945 160.32H450.347V153.054H448.945V160.32Z" fill="#FF4E53"/>
<path d="M461.432 160.32H462.833V153.054H461.432V160.32Z" fill="#FF4E53"/>
<path d="M436.46 160.32H437.861V153.054H436.46V160.32Z" fill="#FF4E53"/>
<path d="M423.974 160.32H425.376V153.054H423.974V160.32Z" fill="#FF4E53"/>
<path d="M462.833 153.644H494.508V152.463H462.833V153.644Z" fill="#BA3A47"/>
<path d="M462.833 157.13H494.508V155.95H462.833V157.13Z" fill="#BA3A47"/>
<path d="M462.833 160.32H494.508V159.139H462.833V160.32Z" fill="#BA3A47"/>
<path d="M483.015 160.32H484.417V153.054H483.015V160.32Z" fill="#BA3A47"/>
<path d="M493.106 160.32H494.508V153.054H493.106V160.32Z" fill="#BA3A47"/>
<path d="M472.924 160.32H474.326V153.054H472.924V160.32Z" fill="#BA3A47"/>
<path d="M462.833 160.32H464.235V153.054H462.833V160.32Z" fill="#BA3A47"/>
<path d="M496.801 95.3673L500.194 90.4251L487.354 91.68C449.418 76.352 481.75 93.9995 471.978 80.0275H464.181C464.181 80.0275 462.758 93.1494 468.235 89.7049C471.303 96.5328 491.588 97.5134 496.801 95.3673Z" fill="#992B3B"/>
<path d="M468.235 89.7049V85.1018L471.303 87.0966C467.715 85.3404 464.881 80.7387 464.261 80.0275H455.981C446.159 86.6219 438.534 89.5823 431.643 90.7783L420.866 87.8804L424.258 93.501C431.497 96.0574 460.547 97.5172 468.235 89.7049Z" fill="#BA3A47"/>
<path d="M490.385 84.2341H462.833V118.253H490.385V84.2341Z" fill="#DDD3D4"/>
<path d="M462.833 84.2341H428.677V118.253H462.833V84.2341Z" fill="#FDFDFD"/>
<path d="M448.283 102.58H442.852V117.265H448.283V102.58Z" fill="#272747"/>
<path d="M442.852 102.58H441.183V117.265H442.852V102.58Z" fill="#FFBA78"/>
<path d="M449.953 102.58H448.284V117.265H449.953V102.58Z" fill="#FFBA78"/>
<path d="M456.385 106.444V102.58H451.863V106.444H456.385Z" fill="#FFBA78"/>
<path d="M439.363 106.444V102.58H434.841V106.444H439.363Z" fill="#FFBA78"/>
<path d="M433.465 84.2341H428.677V118.253H433.465V84.2341Z" fill="#BA3A47"/>
<path d="M462.833 84.2341H458.044V118.253H462.833V84.2341Z" fill="#BA3A47"/>
<path d="M462.981 94.5226H428.677V97.0063H462.981V94.5226Z" fill="#BA3A47"/>
<path d="M447.071 95.9105V89.0026H444.587V95.9105H447.071Z" fill="#BA3A47"/>
<path d="M490.385 84.2341H485.597V118.253H490.385V84.2341Z" fill="#992B3B"/>
<path d="M467.622 84.2341H462.833V118.253H467.622V84.2341Z" fill="#992B3B"/>
<path d="M490.385 94.5226H462.981V97.0062H490.385V94.5226Z" fill="#992B3B"/>
<path d="M503.138 91.7072L507.129 85.8922L492.022 87.3688C447.386 69.3338 485.428 90.0978 473.931 73.6584H464.757C464.757 73.6584 463.083 89.0976 469.527 85.0448C473.136 93.0785 497.004 94.2322 503.138 91.7072Z" fill="#BA3A47"/>
<path d="M469.528 85.0448V79.6289L473.137 81.976C468.916 79.9097 465.581 74.4952 464.851 73.6584H455.109C443.552 81.4174 434.581 84.9007 426.473 86.3077L413.793 82.8981L417.784 89.5114C426.302 92.5192 460.481 94.2368 469.528 85.0448Z" fill="#FF4E53"/>
<path d="M509.618 86.2823V81.7224L493.288 83.3185C485.578 80.1861 478.833 75.0739 473.733 68.4986H463.817C463.817 68.4986 462.652 83.7961 469.619 79.4154C472.261 89.8299 503.072 90.3331 509.618 86.2823Z" fill="#0D0D1E"/>
<path d="M469.619 79.4154V74.8554L472.874 77.4893C468.311 75.2558 464.707 69.4031 463.918 68.4986H453.388C440.895 76.8855 431.198 80.6507 422.434 82.1716L408.728 78.486V83.046C418.176 89.4931 461.307 91.5305 469.619 79.4154Z" fill="#1C1C35"/>
<path d="M509.618 81.7224C494.682 84.3421 471.737 63.9387 471.737 63.9387H463.817C463.817 63.9387 462.652 79.2362 469.619 74.8554C472.261 85.27 503.072 85.7731 509.618 81.7224Z" fill="#1C1C35"/>
<path d="M469.619 74.8554C462.992 76.259 463.918 63.9387 463.918 63.9387H453.388C434.133 76.8653 421.519 78.8126 408.728 78.486C418.176 84.9331 461.307 86.9705 469.619 74.8554Z" fill="#272747"/>
<path d="M423.974 111.577H462.833V110.397H423.974V111.577Z" fill="#FF4E53"/>
<path d="M423.974 115.064H462.833V113.883H423.974V115.064Z" fill="#FF4E53"/>
<path d="M423.974 118.253H462.833V117.072H423.974V118.253Z" fill="#FF4E53"/>
<path d="M448.945 118.253H450.347V110.987H448.945V118.253Z" fill="#FF4E53"/>
<path d="M461.432 118.253H462.833V110.987H461.432V118.253Z" fill="#FF4E53"/>
<path d="M436.46 118.253H437.861V110.987H436.46V118.253Z" fill="#FF4E53"/>
<path d="M423.974 118.253H425.376V110.987H423.974V118.253Z" fill="#FF4E53"/>
<path d="M462.833 111.577H494.509V110.397H462.833V111.577Z" fill="#BA3A47"/>
<path d="M462.833 115.064H494.509V113.883H462.833V115.064Z" fill="#BA3A47"/>
<path d="M462.833 118.253H494.509V117.072H462.833V118.253Z" fill="#BA3A47"/>
<path d="M483.015 118.253H484.417V110.987H483.015V118.253Z" fill="#BA3A47"/>
<path d="M493.107 118.253H494.509V110.987H493.107V118.253Z" fill="#BA3A47"/>
<path d="M472.924 118.253H474.326V110.987H472.924V118.253Z" fill="#BA3A47"/>
<path d="M462.833 118.253H464.235V110.987H462.833V118.253Z" fill="#BA3A47"/>
<path d="M471.736 61.1909H453.387V63.9386H471.736V61.1909Z" fill="#272747"/>
<path d="M469.618 58.4432H455.506V61.1909H469.618V58.4432Z" fill="#272747"/>
<path d="M467.002 55.6955H458.122V58.4432H467.002V55.6955Z" fill="#272747"/>
<path d="M463.743 23.8376H461.381V55.6955H463.743V23.8376Z" fill="#272747"/>
<path d="M548.871 244.527H418.68V247.326H548.871V244.527Z" fill="#272747"/>
<path d="M548.871 247.326H415.24V250.124H548.871V247.326Z" fill="#272747"/>
<path d="M548.871 250.124H411.8V252.923H548.871V250.124Z" fill="#272747"/>
<path d="M548.871 252.923H408.359V255.721H548.871V252.923Z" fill="#272747"/>
<path d="M548.871 255.721H404.918V258.519H548.871V255.721Z" fill="#272747"/>
<path d="M548.871 258.519H401.478V261.318H548.871V258.519Z" fill="#272747"/>
<path d="M548.871 261.318H398.037V264.116H548.871V261.318Z" fill="#272747"/>
<path d="M548.871 264.116H394.597V266.914H548.871V264.116Z" fill="#272747"/>
<path d="M548.871 266.914H391.156V269.713H548.871V266.914Z" fill="#272747"/>
<path d="M548.871 269.713H387.716V272.511H548.871V269.713Z" fill="#272747"/>
<path d="M548.871 272.511H384.275V275.31H548.871V272.511Z" fill="#272747"/>
<path d="M548.871 275.31H380.835V278.108H548.871V275.31Z" fill="#272747"/>
<path d="M548.871 244.527H418.68V244.985H548.871V244.527Z" fill="#3F3E56"/>
<path d="M548.871 247.326H415.24V247.784H548.871V247.326Z" fill="#3F3E56"/>
<path d="M548.871 250.124H411.8V250.582H548.871V250.124Z" fill="#3F3E56"/>
<path d="M548.871 252.923H408.359V253.381H548.871V252.923Z" fill="#3F3E56"/>
<path d="M548.871 255.721H404.918V256.179H548.871V255.721Z" fill="#3F3E56"/>
<path d="M548.871 258.519H401.478V258.977H548.871V258.519Z" fill="#3F3E56"/>
<path d="M548.871 261.318H398.037V261.776H548.871V261.318Z" fill="#3F3E56"/>
<path d="M548.871 264.116H394.597V264.574H548.871V264.116Z" fill="#3F3E56"/>
<path d="M548.871 266.914H391.156V267.372H548.871V266.914Z" fill="#3F3E56"/>
<path d="M548.871 269.713H387.716V270.171H548.871V269.713Z" fill="#3F3E56"/>
<path d="M548.871 272.511H384.275V272.969H548.871V272.511Z" fill="#3F3E56"/>
<path d="M548.871 275.31H380.835V275.768H548.871V275.31Z" fill="#3F3E56"/>
<path d="M566.47 206.59C564 197.641 557.367 191.7 551.497 193.32C547.471 194.432 544.911 198.813 544.497 204.343C544.379 204.243 544.269 204.139 544.148 204.04C537.434 198.545 529.452 197.192 526.32 201.019C523.188 204.846 526.091 212.403 532.805 217.899C532.926 217.998 533.05 218.086 533.173 218.183C532.1 218.283 531.059 218.601 530.114 219.118C529.169 219.635 528.339 220.339 527.676 221.188C524.797 225.065 526.392 231.196 531.185 235.353C524.54 233.693 518.696 234.495 517.918 237.269C517.311 239.43 519.953 242.173 524.242 244.245C521.804 245.181 519.768 247.811 518.8 251.249C518.11 250.263 517.218 249.436 516.183 248.822C514.553 247.887 512.668 247.496 510.801 247.705C511.085 247.382 511.362 247.048 511.627 246.694C515.38 241.691 515.679 235.577 512.294 233.037C508.922 230.508 503.169 232.48 499.414 237.44C496.467 229.96 490.469 225.278 485.183 226.737C481.276 227.816 478.76 231.981 478.236 237.28C477.557 236.345 476.684 235.567 475.677 235C474.67 234.433 473.553 234.089 472.402 233.993C467.257 233.707 462.774 239.085 462.389 246.007C462.361 246.501 462.361 246.987 462.375 247.469C457.878 245.109 453.061 245.315 450.894 248.233C448.87 250.959 449.778 255.215 452.808 258.717C451.521 258.748 450.258 259.077 449.12 259.679C447.982 260.282 446.999 261.141 446.25 262.188C446.118 260.467 445.755 258.772 445.169 257.149C442.654 250.13 436.765 245.82 432.015 247.522C427.763 249.045 425.876 254.873 427.33 261.114C420.279 260.236 414.124 262.678 412.577 267.445C411.343 271.249 413.364 275.576 417.39 278.914C412.259 277.483 407.486 278.535 405.922 281.769C404.247 285.234 406.82 290.031 411.76 293.181C406.455 293.732 402.38 296.788 402.315 300.555C402.264 303.514 404.703 306.119 408.31 307.458C405.174 309.485 403.464 312.304 404.4 314.221C404.903 315.252 406.086 315.835 407.616 315.969C406.546 318.371 406.123 321.011 406.389 323.627C405.558 322.824 404.564 322.209 403.474 321.825C402.384 321.441 401.224 321.297 400.073 321.402C394.957 322.012 391.475 328.087 392.295 334.97C392.354 335.462 392.438 335.941 392.536 336.412C387.697 334.868 382.989 335.906 381.361 339.156C379.465 342.94 382.462 348.278 388.053 351.079L390.091 363.396H566.47V206.59Z" fill="url(#paint0_linear_217_1482)"/>
<path d="M569.122 228.684C568.465 228.147 567.809 227.61 567.152 227.072C562.564 232.3 557.5 237.091 552.026 241.382C555.855 235.729 559.178 229.747 561.954 223.509C561.191 223.138 560.428 222.768 559.665 222.397C557.088 227.273 554.155 231.954 550.891 236.4C552.457 231.252 553.662 226.001 554.499 220.686C553.666 220.527 552.832 220.368 551.999 220.208C551.096 224.174 549.979 228.087 548.653 231.931C547.492 226.262 545.909 220.688 543.915 215.256C543.11 215.522 542.304 215.787 541.498 216.053C543.737 223.716 545.152 231.596 545.719 239.56C545.689 239.632 545.656 239.702 545.625 239.774C543.622 232.521 540.918 225.481 537.551 218.752C536.78 219.107 536.01 219.461 535.239 219.816C537.539 225.31 539.399 230.979 540.801 236.768C537.818 231.857 534.473 227.174 530.794 222.758C530.125 223.279 529.456 223.8 528.786 224.321C533.974 231.477 538.299 239.22 541.672 247.39C541.578 247.489 541.483 247.586 541.389 247.684C537.32 241.819 533.819 235.58 530.934 229.052C530.146 229.367 529.359 229.683 528.572 229.999C530.488 235.276 532.785 240.406 535.445 245.35C530.743 241.919 525.788 238.847 520.623 236.161C520.207 236.9 519.791 237.639 519.375 238.379C525.315 241.998 530.906 246.161 536.076 250.814C529.848 248.016 523.383 245.773 516.76 244.112C516.526 244.928 516.293 245.744 516.059 246.559C521.307 248.258 526.422 250.341 531.364 252.791C526.023 252.134 520.643 251.851 515.263 251.943C515.25 252.791 515.237 253.639 515.224 254.488C522.204 254.918 529.135 255.943 535.941 257.551C539.668 257.973 544.27 259.392 546.65 262.403C547.655 263.673 548.688 264.923 549.751 266.151C549.977 266.414 550.205 266.676 550.435 266.937C550.45 266.788 550.467 266.638 550.482 266.489C550.532 265.966 550.577 265.442 550.62 264.919C550.852 262.106 550.926 259.283 551.007 256.463C551.034 255.544 550.436 248.976 550.841 248.772C558.327 245.002 566.212 242.081 574.349 240.065C574.173 239.235 573.998 238.405 573.822 237.575C568.295 238.554 562.845 239.933 557.517 241.702C561.707 237.66 565.586 233.309 569.122 228.684Z" fill="url(#paint1_linear_217_1482)"/>
<path d="M507.313 270.948C507.205 270.334 507.097 269.72 506.989 269.106C501.927 269.817 496.809 270.057 491.703 269.821C496.547 268.509 501.266 266.772 505.804 264.629C505.557 264.057 505.309 263.484 505.062 262.912C501.288 264.392 497.41 265.592 493.46 266.502C496.801 264.386 499.99 262.04 503.005 259.481C502.618 258.993 502.23 258.505 501.842 258.017C499.438 259.792 496.939 261.436 494.357 262.94C496.429 259.227 498.221 255.363 499.716 251.382C499.14 251.143 498.563 250.905 497.987 250.667C495.559 256.008 492.568 261.075 489.065 265.782C489.013 265.807 488.961 265.831 488.909 265.856C491.272 260.856 493.143 255.639 494.495 250.277C493.895 250.105 493.296 249.932 492.697 249.76C491.343 253.923 489.66 257.972 487.664 261.868C488.358 257.702 488.742 253.49 488.811 249.267C488.188 249.236 487.565 249.206 486.943 249.175C486.4 255.648 485.095 262.034 483.055 268.201C482.956 268.211 482.856 268.22 482.757 268.229C483.303 263.012 484.346 257.858 485.87 252.839C485.28 252.637 484.69 252.435 484.1 252.234C482.637 256.091 481.456 260.05 480.566 264.079C479.593 259.913 478.307 255.826 476.719 251.853C476.132 252.065 475.546 252.277 474.96 252.49C476.532 257.354 477.649 262.354 478.297 267.425C476.17 262.879 473.646 258.53 470.754 254.429C470.232 254.771 469.711 255.113 469.19 255.455C471.298 258.918 473.147 262.531 474.725 266.265C472.065 263.339 469.205 260.601 466.165 258.072C465.751 258.538 465.337 259.004 464.922 259.47C468.603 263.057 471.971 266.952 474.991 271.111C476.864 273.134 478.746 276.131 478.628 278.949C478.578 280.139 478.557 281.331 478.557 282.524C478.557 282.779 478.559 283.034 478.561 283.289C478.641 283.213 478.722 283.139 478.802 283.063C479.081 282.795 479.358 282.526 479.632 282.255C481.11 280.799 482.506 279.263 483.903 277.731C484.358 277.232 487.176 273.288 487.499 273.368C493.476 274.859 499.268 277.014 504.766 279.793C505.067 279.247 505.367 278.701 505.667 278.154C502.119 276.048 498.423 274.203 494.607 272.633C498.879 272.391 503.126 271.828 507.313 270.948Z" fill="url(#paint2_linear_217_1482)"/>
<path d="M567.025 264.449C566.243 274.532 557.147 282.049 546.71 281.239C536.272 280.43 528.445 271.6 529.227 261.517C530.009 251.434 539.104 235.329 549.542 236.138C559.98 236.948 567.807 254.366 567.025 264.449Z" fill="url(#paint3_linear_217_1482)"/>
<path d="M488.023 287.606C487.377 295.925 479.872 302.128 471.26 301.46C462.648 300.792 456.189 293.506 456.835 285.186C457.48 276.867 464.985 263.578 473.597 264.246C482.21 264.914 488.668 279.286 488.023 287.606Z" fill="url(#paint4_linear_217_1482)"/>
<path d="M424.427 293.706C433.583 286.73 443.765 281.218 454.611 277.365C490.62 264.675 530.303 271.69 567.687 293.706H424.427Z" fill="#323654"/>
<mask id="mask1_217_1482" style="mask-type:alpha" maskUnits="userSpaceOnUse" x="0" y="163" width="604" height="254">
<rect x="0.559814" y="163.058" width="603.17" height="253.517" fill="#C4C4C4"/>
</mask>
<g mask="url(#mask1_217_1482)">
<path d="M542.654 195.359C534.177 191.409 524.834 192.524 516.662 197.436C507.523 202.931 504.063 213.774 496.643 221.557C482.479 236.414 469.138 205.069 454.632 218.969C445.213 227.994 440.286 246.482 428.536 250.485C417.703 254.174 411.803 240.68 402.383 239.393C394.231 238.28 384.442 249.475 380.096 258.445C379.395 259.891 378.736 261.425 377.938 262.75V360.516H559.284V202.203C553.593 202.373 548.17 197.929 542.654 195.359Z" fill="#FDFDFD"/>
<path d="M284.801 373.313V307.602C283.193 301.99 277.1 307.321 273.9 307.771C267.565 308.661 263.839 305.18 262.55 296.966C261.432 289.843 261.985 281.543 259.08 275.814C255.516 268.783 247.812 267.721 240.623 268.311C233.435 268.901 225.804 270.645 219.633 267.59C211.865 263.744 207.912 252.996 200.414 248.549C193.476 244.433 184.266 246.311 175.92 251.078C168.452 255.343 160.708 265.974 153.499 269.059C146.304 272.138 141.586 264.938 137.361 260.085C132.041 253.85 124.559 249.857 116.417 248.911C107.586 247.897 99.5091 250.51 93.0251 242.466C85.174 232.725 85.6702 211.723 74.5501 208.311C67.7135 206.213 59.2702 212.176 52.1578 210.982C45.3185 209.834 41.2022 202.467 36.134 197.324V373.313H284.801Z" fill="#FDFDFD"/>
<path d="M504.828 308.958C487.262 307.198 432.968 303.867 415.952 298.941V298.905C415.719 298.852 415.488 298.792 415.254 298.738C377.695 287.763 341.731 268.999 308.456 242.127C306.372 239.438 302.231 238.919 297.709 239.25C293.188 238.919 289.047 239.438 286.962 242.127C253.688 268.999 217.724 287.763 180.165 298.738C179.931 298.792 179.7 298.852 179.466 298.905V298.941C162.45 303.867 108.157 307.198 90.5911 308.958V369.257H504.828V308.958Z" fill="url(#paint5_linear_217_1482)"/>
<path d="M271.231 258.593C277.421 250.169 283.31 251.429 279.854 262.822C290.701 261.822 278.109 257.267 299.104 252.137C301.286 247.223 311.069 259.787 317.576 263.15C321.724 264.243 310.802 255.939 316.762 256.308C324.21 256.979 327.583 265.89 327.746 257.055C326.022 255.505 324.408 254.023 322.905 252.608C318.036 249.094 313.22 245.416 308.456 241.575C306.372 238.885 302.231 238.366 297.709 238.698C293.188 238.366 289.047 238.885 286.962 241.575C282.184 245.434 277.351 249.124 272.463 252.645C271.147 253.895 269.766 255.195 268.296 256.558C272.798 252.725 266.339 262.682 271.231 258.593Z" fill="#FDFDFD"/>
<path d="M36.1343 417.559V271.971C37.7913 271.617 39.4679 271.362 41.1553 271.208C50.7021 270.413 61.2554 272.813 68.808 278.514C77.3211 284.939 83.3525 290.951 95.0055 290.711C100.07 290.607 105.13 289.333 110.153 289.982C117.381 290.916 122.448 295.807 128.848 298.74C139.294 303.527 151.476 305.254 162.665 302.211C175.367 298.757 183.444 288.043 197.169 288.401C205.608 288.621 212.516 293.22 220.888 293.949C228.962 294.653 236.57 291.679 244.322 290.031C255.214 287.715 267.219 288.368 277.719 291.249C289.461 294.47 293.907 300.828 303.441 305.391C319.984 313.309 337.038 298.924 354.052 302.115C359.066 303.055 364.042 304.6 369.142 304.435C379.266 304.108 382.794 294.361 391.365 290.742C398.203 287.855 407.178 288.761 414.901 290.407C422.625 292.053 430.366 294.365 438.46 293.977C448.649 293.488 457.444 288.794 467.58 287.949C476.96 287.168 486.395 289.844 493.687 293.819C500.212 297.377 504.427 304.204 511.149 307.116C517.858 310.021 526.045 307.264 532.72 305.602C541.407 303.49 550.391 302.875 559.284 303.785V417.559H36.1343Z" fill="#EF5DA8"/>
<path d="M559.284 403.093V304.994C557.624 304.68 555.949 304.454 554.265 304.318C544.885 303.626 535.45 305.997 528.159 309.519C521.633 312.671 517.418 318.721 510.696 321.301C503.987 323.876 495.8 321.433 489.125 319.96C479.993 318.012 470.615 317.496 461.325 318.431C451.122 319.443 443.243 321.956 432.753 319.428C420.051 316.367 411.975 306.873 398.249 307.19C389.811 307.386 382.903 311.46 374.53 312.107C366.457 312.73 358.849 310.095 351.096 308.634C340.009 306.684 328.638 307.052 317.7 309.714C305.958 312.568 301.512 318.201 291.978 322.245C275.435 329.261 258.381 316.514 241.367 319.342C236.352 320.176 231.376 321.544 226.277 321.398C216.153 321.108 212.625 312.472 204.054 309.265C197.216 306.706 188.241 307.51 180.517 308.968C172.793 310.426 165.053 312.475 156.958 312.131C146.769 311.698 137.974 307.538 127.839 306.79C118.459 306.098 109.024 308.469 101.732 311.992C95.2068 315.144 90.9912 321.193 84.2692 323.773C77.5602 326.348 69.3734 323.905 62.6982 322.432C53.9755 320.559 45.0195 320.016 36.1343 320.822L36.1343 403.093H559.284Z" fill="#FCDDEC"/>
<path d="M560.183 335.537C558.931 335.448 557.673 335.462 556.423 335.579C549.988 336.175 544.118 339.756 537.662 339.856C525.906 340.038 517.553 328.885 505.806 328.75C498.917 328.671 492.704 332.457 487.505 336.458C482.306 340.46 477.288 344.986 470.752 347.023C459.345 350.579 449.235 340.436 437.392 340.409C423.44 340.377 412.312 347.964 404.353 357.4C398.425 365.364 394.461 356.628 389.14 353.128C381.363 348.012 371.994 348.337 362.867 350.992C355.31 353.19 350.111 359.177 341.345 358.564C337.76 358.313 334.326 357.38 330.784 356.894C320.533 355.488 310.135 357.871 299.82 358.983C287.199 360.344 277.35 358.628 268.386 351.846C260.141 345.609 252.573 338.654 239.735 338.936C231.826 339.11 224.506 342.315 216.59 341.991C202.172 341.4 192.319 329.667 177.924 328.76C169.482 328.228 161.734 331.615 155.223 335.285C148.711 338.956 142.403 343.164 134.321 344.777C120.215 347.592 108.173 336.756 93.6561 335.95C76.5542 335.001 62.6506 341.877 52.5678 350.815C43.4902 359.955 45.92 348.287 35.2351 342.813V417.559H560.183V335.537Z" fill="#F178B6"/>
<path d="M237.88 363.446L223.079 393.639H252.681L237.88 363.446Z" fill="url(#paint6_linear_217_1482)"/>
<path d="M156.94 333.33L142.139 374.527H171.741L156.94 333.33Z" fill="url(#paint7_linear_217_1482)"/>
<path d="M295.011 360.654L280.21 393.639H309.812L295.011 360.654Z" fill="url(#paint8_linear_217_1482)"/>
<path d="M223.701 358.864L202.726 393.639H232.328L223.701 358.864Z" fill="url(#paint9_linear_217_1482)"/>
<path d="M302.788 363.903L290.632 393.639H320.234L302.788 363.903Z" fill="url(#paint10_linear_217_1482)"/>
<path d="M259.477 367.371L244.676 393.64H274.279L259.477 367.371Z" fill="url(#paint11_linear_217_1482)"/>
<path d="M150.091 316.327L135.29 393.639H164.893L150.091 316.327Z" fill="url(#paint12_linear_217_1482)"/>
<path d="M135.29 345.841L120.489 393.639H150.091L135.29 345.841Z" fill="url(#paint13_linear_217_1482)"/>
<path d="M119.622 354.068L104.821 393.639H134.422L119.622 354.068Z" fill="url(#paint14_linear_217_1482)"/>
<path d="M279.016 355.414L264.215 393.639H293.817L279.016 355.414Z" fill="url(#paint15_linear_217_1482)"/>
<path d="M327.26 351.665L309.812 393.639H339.415L327.26 351.665Z" fill="url(#paint16_linear_217_1482)"/>
<path d="M342.619 358.864L327.818 393.639H357.42L342.619 358.864Z" fill="url(#paint17_linear_217_1482)"/>
<path d="M210.535 355.55L195.733 393.639H225.336L210.535 355.55Z" fill="url(#paint18_linear_217_1482)"/>
<path d="M188.427 341.144L178.036 393.639H207.638L188.427 341.144Z" fill="url(#paint19_linear_217_1482)"/>
<path d="M178.036 345.958L163.235 393.639H192.837L178.036 345.958Z" fill="url(#paint20_linear_217_1482)"/>
<path d="M170.073 337.978L152.627 393.639H182.229L170.073 337.978Z" fill="url(#paint21_linear_217_1482)"/>
<path d="M320.27 374.483L335.071 417.559H305.468L320.27 374.483Z" fill="url(#paint22_linear_217_1482)"/>
<path d="M187.71 362.799L202.512 392.371H172.909L187.71 362.799Z" fill="url(#paint23_linear_217_1482)"/>
<path d="M279.937 372.478L294.738 417.559H265.135L279.937 372.478Z" fill="url(#paint24_linear_217_1482)"/>
<path d="M334.449 371.194L355.423 417.559H325.821L334.449 371.194Z" fill="url(#paint25_linear_217_1482)"/>
<path d="M272.161 374.812L284.316 417.559H254.714L272.161 374.812Z" fill="url(#paint26_linear_217_1482)"/>
<path d="M307.072 377.3L321.873 417.559H292.27L307.072 377.3Z" fill="url(#paint27_linear_217_1482)"/>
<path d="M194.559 365.615L209.36 417.559H179.758L194.559 365.615Z" fill="url(#paint28_linear_217_1482)"/>
<path d="M209.36 371.78L224.161 417.559H194.559L209.36 371.78Z" fill="url(#paint29_linear_217_1482)"/>
<path d="M225.029 377.684L239.83 417.559H210.228L225.029 377.684Z" fill="url(#paint30_linear_217_1482)"/>
<path d="M295.932 368.717L310.734 417.559H281.131L295.932 368.717Z" fill="url(#paint31_linear_217_1482)"/>
<path d="M247.689 367.811L265.135 417.559H235.533L247.689 367.811Z" fill="url(#paint32_linear_217_1482)"/>
<path d="M258.673 376.62L276.12 417.559H246.517L258.673 376.62Z" fill="url(#paint33_linear_217_1482)"/>
<path d="M232.328 377.077L247.13 417.559H217.527L232.328 377.077Z" fill="url(#paint34_linear_217_1482)"/>
<path d="M142.515 364.044L157.316 417.559H127.714L142.515 364.044Z" fill="url(#paint35_linear_217_1482)"/>
<path d="M156.223 368.408L166.614 417.559H137.012L156.223 368.408Z" fill="url(#paint36_linear_217_1482)"/>
<path d="M166.614 371.863L181.415 417.559H151.813L166.614 371.863Z" fill="url(#paint37_linear_217_1482)"/>
<path d="M174.577 366.135L192.024 417.559H162.421L174.577 366.135Z" fill="url(#paint38_linear_217_1482)"/>
<path d="M-22.2388 417.559H203.674C204.084 415.626 203.823 413.611 202.935 411.846C200.715 407.656 195.23 405.893 188.998 406.791C189.08 406.636 189.168 406.488 189.248 406.33C193.691 397.539 193.231 388.359 188.22 385.826C183.209 383.293 175.544 388.366 171.1 397.158C171.02 397.317 170.953 397.476 170.876 397.635C170.502 396.471 169.894 395.395 169.089 394.474C168.284 393.553 167.299 392.806 166.195 392.28C161.191 390.04 154.786 393.313 151.354 399.647C151.564 391.873 149.24 385.592 145.974 385.409C143.429 385.267 141.037 388.869 139.793 394.133C138.157 391.66 134.742 390.049 130.693 389.819C131.616 388.812 132.314 387.62 132.741 386.323C133.377 384.287 133.349 382.1 132.658 380.082C133.086 380.317 133.525 380.543 133.982 380.75C140.449 383.683 147.299 382.513 149.284 378.137C151.261 373.778 147.662 367.885 141.243 364.94C148.81 359.837 152.529 352.039 149.614 346.538C147.459 342.471 142.225 340.704 136.221 341.424C137.091 340.442 137.739 339.283 138.12 338.028C138.502 336.773 138.608 335.45 138.432 334.15C137.488 328.377 130.425 324.727 122.657 325.999C122.103 326.09 121.563 326.209 121.033 326.343C122.546 320.778 121.135 315.489 117.368 313.803C113.849 312.228 109.354 314.28 106.215 318.499C105.883 317.174 105.272 315.935 104.424 314.864C103.074 313.212 101.234 312.032 99.1686 311.497C99.6006 311.269 100.03 311.027 100.455 310.76C106.464 306.977 109.259 300.613 106.699 296.547C104.148 292.497 97.2471 292.257 91.2548 295.994C91.1617 286.867 86.6992 279.47 80.5018 278.874C75.9204 278.434 71.5641 281.831 68.8593 287.238C68.5183 285.971 67.9081 284.793 67.0703 283.783C66.2325 282.773 65.1868 281.956 64.0045 281.387C58.6651 278.997 51.7301 282.884 48.5147 290.068C48.271 290.613 48.0651 291.161 47.8775 291.709C44.521 287.335 39.7309 285.297 36.1673 287.097C33.1679 288.612 31.8423 292.441 32.4072 296.773C28.7108 294.697 24.9747 294.471 23.5441 296.427C22.7219 297.551 22.8178 299.184 23.6353 300.918C20.7677 299.428 17.5213 298.826 14.31 299.188C18.3204 290.989 17.65 282.376 12.3781 279.063C8.48088 276.615 3.06367 277.697 -1.77921 281.317C-1.51574 280.032 -1.53255 278.705 -1.82848 277.426C-2.12441 276.148 -2.69251 274.949 -3.49405 273.91C-7.19451 269.379 -15.1359 269.743 -21.232 274.721L-22.2388 275.452V417.559Z" fill="url(#paint39_linear_217_1482)"/>
<path d="M1.25537 417.559V345.819C2.21094 344.761 3.49842 344.059 4.90588 343.83C8.29443 343.351 11.648 345.808 13.7643 349.829C13.8204 349.715 13.869 349.601 13.9275 349.488C17.1796 343.167 22.7368 339.545 26.3398 341.399C29.9429 343.253 30.2274 349.88 26.9752 356.201C26.9165 356.315 26.8517 356.422 26.7915 356.534C27.6303 356.259 28.5164 356.159 29.3954 356.239C30.2745 356.319 31.1279 356.577 31.9034 356.999C35.3319 358.973 36.1342 364.101 33.889 368.79C38.3407 365.373 42.9945 364.069 44.4849 365.899C45.6464 367.325 44.5561 370.249 42.0088 373.206C44.1464 373.114 46.5346 374.426 48.3843 376.693C48.5814 375.728 48.9819 374.815 49.5591 374.016C50.4788 372.781 51.7679 371.872 53.2394 371.419C52.9206 371.269 52.6029 371.109 52.2882 370.93C47.8349 368.395 45.6153 363.897 47.3304 360.884C49.0388 357.882 54.0063 357.487 58.4463 359.989C58.2202 353.406 61.1995 347.93 65.6482 347.301C68.9369 346.837 72.1866 349.145 74.3102 352.957C74.5154 352.033 74.9174 351.163 75.489 350.408C76.0605 349.654 76.7881 349.031 77.6222 348.583C81.3947 346.688 86.5191 349.267 89.0679 354.343C89.2499 354.706 89.4088 355.071 89.555 355.438C92.1647 352.196 95.8518 350.779 98.4328 352.265C100.844 353.653 101.55 357.148 100.416 360.769C101.331 360.402 102.314 360.234 103.298 360.275C104.835 360.363 106.304 360.939 107.492 361.918C107.442 361.569 107.401 361.216 107.377 360.854C107.041 355.742 109.573 351.412 113.033 351.185C116.48 350.958 119.545 354.887 119.901 359.971C125.271 356.158 131.483 355.63 134.458 358.997C136.656 361.487 136.518 365.471 134.506 369.342C135.39 369.005 136.337 368.862 137.282 368.923C138.227 368.985 139.147 369.249 139.98 369.699C143.639 371.805 144.307 377.503 141.474 382.425C141.259 382.798 141.026 383.151 140.785 383.493C144.762 383.6 147.983 385.534 148.441 388.378C148.827 390.772 147.152 393.169 144.383 394.675C147.162 395.954 148.877 398.041 148.341 399.705C148.032 400.662 147.038 401.298 145.679 401.555C147.764 402.599 149.492 404.24 150.641 406.269C153.731 400.452 159.046 397.194 163.215 398.869C166.296 400.108 167.96 403.731 167.897 408.094C168.537 407.395 169.319 406.843 170.191 406.474C171.063 406.105 172.004 405.929 172.95 405.957C177.165 406.199 180.318 410.991 179.993 416.662V417.559H1.25537Z" fill="#EF5DA8"/>
<path d="M324.88 373.681L319.147 394.615L318.914 413.77L321.029 444.932L330.775 447.054L341.62 444.932L345.628 423.864L343.742 396.604L342.563 372.781L332.271 369.925L324.88 373.681Z" fill="url(#paint40_linear_217_1482)"/>
<path d="M559.284 417.559V291.692C557.608 289.835 555.349 288.604 552.879 288.202C546.934 287.362 541.05 291.673 537.337 298.727C537.239 298.528 537.154 298.328 537.051 298.129C531.345 287.039 521.595 280.685 515.274 283.937C508.952 287.189 508.453 298.817 514.159 309.907C514.262 310.107 514.375 310.294 514.481 310.492C513.01 310.009 511.455 309.833 509.913 309.973C508.37 310.113 506.873 310.567 505.512 311.307C499.497 314.77 498.089 323.768 502.029 331.994C494.218 325.999 486.053 323.711 483.438 326.922C481.4 329.424 483.313 334.554 487.782 339.742C484.032 339.581 479.842 341.883 476.597 345.861C476.251 344.166 475.548 342.565 474.535 341.163C472.922 338.997 470.66 337.401 468.078 336.607C468.638 336.344 469.195 336.062 469.747 335.748C477.561 331.301 481.455 323.41 478.446 318.123C475.448 312.856 466.733 312.163 458.943 316.553C459.34 305.003 454.112 295.395 446.307 294.292C440.537 293.477 434.836 297.528 431.11 304.215C430.213 300.801 428.241 298.018 425.299 296.541C418.68 293.217 409.689 297.742 405.218 306.648C404.898 307.283 404.619 307.925 404.363 308.568C399.784 302.881 393.315 300.394 388.787 303.001C384.557 305.437 383.318 311.568 385.307 317.921C383.702 317.277 381.978 316.982 380.25 317.056C377.554 317.21 374.976 318.219 372.892 319.937C372.981 319.326 373.052 318.705 373.094 318.071C373.684 309.101 369.241 301.505 363.17 301.106C357.124 300.708 351.746 307.602 351.121 316.522C341.699 309.832 330.8 308.905 325.582 314.813C321.724 319.181 321.967 326.171 325.497 332.963C322.154 331.832 318.745 331.946 315.892 333.589C309.473 337.284 308.3 347.28 313.272 355.917C313.649 356.571 314.058 357.19 314.48 357.79C307.502 357.978 301.852 361.371 301.047 366.362C300.37 370.562 303.309 374.767 308.168 377.409C303.292 379.654 300.283 383.314 301.224 386.235C301.765 387.913 303.509 389.029 305.895 389.481C302.236 391.312 299.205 394.191 297.188 397.751C291.767 387.545 282.442 381.828 275.128 384.769C269.721 386.942 266.802 393.298 266.912 400.953C264.43 398.442 261.333 397.015 258.046 397.203C250.652 397.627 245.12 406.036 245.69 415.985V417.559H559.284Z" fill="url(#paint41_linear_217_1482)"/>
<path d="M299.638 427.993H465.289V374.937C466.099 370.352 464.24 366.19 461.137 365.642C458.472 365.171 455.76 367.523 454.534 371.101C454.295 370.833 454.046 370.57 453.779 370.316C450.03 366.768 444.853 366.151 442.216 368.937C441.642 369.578 441.213 370.335 440.959 371.157C440.704 371.979 440.629 372.846 440.74 373.699C439.295 372.378 437.53 371.458 435.619 371.03C435.911 370.652 436.1 370.205 436.168 369.732C436.235 369.259 436.178 368.777 436.003 368.333C435.273 366.921 432.829 366.691 430.225 367.665C431.027 364.914 430.554 362.3 428.763 361.016C426.483 359.381 422.847 360.459 420.161 363.384C420.474 359.033 418.75 355.364 415.935 354.826C413.308 354.324 410.559 356.709 409.135 360.411C408.929 356.522 407.241 353.393 404.42 352.44C400.885 351.247 396.691 353.84 394.083 358.443C391 354.802 386.68 353.341 383.88 355.205C380.753 357.287 380.713 362.721 383.79 367.342C384.5 368.413 385.351 369.383 386.321 370.226C385.362 370.208 384.412 370.414 383.547 370.826C382.681 371.239 381.924 371.847 381.334 372.603C380.587 369.237 378.447 366.803 375.919 366.802C373.212 366.8 370.95 369.587 370.362 373.323C370.081 373.1 369.79 372.884 369.483 372.681C365.175 369.837 359.97 370.127 357.856 373.328C357.402 374.059 357.111 374.879 357.003 375.733C356.894 376.586 356.971 377.453 357.228 378.274C353.829 376.234 350.223 375.887 347.842 377.742C344.622 380.253 344.756 385.917 347.916 391C343.285 391.041 339.55 393.602 339.564 396.741C339.578 399.892 343.364 402.43 348.021 402.409C348.35 402.408 348.673 402.39 348.992 402.364C348.038 403.387 347.434 404.688 347.269 406.077C347.176 406.968 347.274 407.868 347.556 408.718C345.072 407.77 342.596 407.818 340.954 408.859C341.621 405.376 341.155 402.578 339.594 401.981C337.591 401.214 334.516 404.35 332.556 409.058C332.202 404.348 329.246 400.671 325.651 400.669C324.849 400.688 324.059 400.871 323.331 401.206C322.602 401.541 321.949 402.022 321.413 402.618C321.41 402.502 321.412 402.389 321.407 402.272C321.106 395.819 317.88 390.728 314.201 390.899C310.523 391.071 307.786 396.442 308.087 402.894C308.092 403.01 308.105 403.122 308.113 403.237C304.624 401.028 300.869 400.612 298.417 402.524C294.841 405.312 295.388 411.991 299.638 417.442V427.993ZM392.775 372.712C392.896 372.961 393.026 373.201 393.166 373.431C392.926 373.189 392.681 372.96 392.43 372.743C392.547 372.739 392.66 372.723 392.775 372.712Z" fill="#EF5DA8"/>
<path d="M566.26 323.541C563.594 313.883 556.436 307.471 550.101 309.22C545.755 310.419 542.993 315.147 542.546 321.115C542.418 321.008 542.299 320.896 542.17 320.789C534.924 314.858 526.309 313.398 522.929 317.529C519.548 321.659 522.681 329.815 529.927 335.746C530.058 335.853 530.192 335.948 530.324 336.052C529.167 336.16 528.043 336.503 527.023 337.061C526.003 337.619 525.108 338.38 524.392 339.296C521.285 343.48 523.007 350.097 528.179 354.583C521.008 352.791 514.701 353.657 513.86 356.65C513.205 358.983 516.057 361.943 520.686 364.179C518.055 365.19 515.858 368.028 514.813 371.738C514.068 370.675 513.105 369.782 511.988 369.119C510.23 368.11 508.195 367.688 506.18 367.913C506.486 367.565 506.786 367.204 507.072 366.822C511.122 361.424 511.444 354.825 507.791 352.084C504.152 349.354 497.943 351.483 493.891 356.835C490.71 348.763 484.237 343.71 478.533 345.284C474.315 346.448 471.601 350.943 471.035 356.662C470.302 355.653 469.36 354.814 468.273 354.202C467.187 353.59 465.981 353.219 464.738 353.115C459.186 352.806 454.348 358.611 453.932 366.081C453.902 366.614 453.902 367.139 453.918 367.659C449.063 365.111 443.865 365.334 441.526 368.483C439.342 371.425 440.322 376.019 443.592 379.799C442.203 379.831 440.84 380.187 439.612 380.837C438.383 381.487 437.323 382.414 436.515 383.544C436.372 381.687 435.98 379.858 435.348 378.106C432.634 370.531 426.278 365.879 421.152 367.716C416.562 369.36 414.526 375.649 416.096 382.384C408.486 381.437 401.843 384.073 400.174 389.217C398.842 393.324 401.023 397.993 405.368 401.596C399.831 400.051 394.679 401.186 392.992 404.676C391.183 408.416 393.961 413.594 399.292 416.993C393.567 417.587 389.169 420.885 389.098 424.951C389.043 428.144 391.675 430.956 395.568 432.401C392.184 434.589 390.338 437.631 391.349 439.7C391.892 440.813 393.168 441.442 394.819 441.586C393.664 444.178 393.208 447.028 393.495 449.851C392.598 448.984 391.525 448.321 390.349 447.907C389.173 447.492 387.921 447.337 386.679 447.45C381.157 448.108 377.399 454.664 378.285 462.093C378.348 462.623 378.439 463.14 378.545 463.65C373.322 461.983 368.241 463.103 366.484 466.611C364.438 470.694 367.672 476.455 373.707 479.479L375.906 492.772H566.26V323.541Z" fill="url(#paint42_linear_217_1482)"/>
<path d="M97.4279 380.933C102.087 371.294 93.9473 357.719 79.2471 350.614C64.5469 343.509 48.853 345.563 44.1938 355.203C39.5346 364.842 47.6744 378.416 62.3746 385.522C77.0748 392.627 92.7687 390.573 97.4279 380.933Z" fill="url(#paint43_linear_217_1482)"/>
<path d="M132.562 300.49H133.513V293.978H132.562V300.49Z" fill="#272747"/>
<path d="M102.852 312.201L124.384 293.657L122.949 291.99L101.417 310.534L102.852 312.201Z" fill="url(#paint44_linear_217_1482)"/>
<path d="M99.682 383.925H104.516L104.516 288.706H99.682L99.682 383.925Z" fill="url(#paint45_linear_217_1482)"/>
<path d="M99.6818 293.978H136.362V288.706H99.6818V293.978Z" fill="url(#paint46_linear_217_1482)"/>
<path d="M135.798 330.814H130.277C128.689 330.814 127.166 330.183 126.043 329.061C124.92 327.938 124.29 326.415 124.29 324.827V308.023C124.29 306.435 124.92 304.912 126.043 303.79C127.166 302.667 128.689 302.036 130.277 302.036H135.798C137.386 302.036 138.909 302.667 140.032 303.79C141.155 304.913 141.785 306.435 141.785 308.023V324.827C141.785 325.613 141.631 326.392 141.33 327.118C141.029 327.844 140.588 328.505 140.032 329.061C139.476 329.617 138.816 330.058 138.089 330.358C137.363 330.659 136.584 330.814 135.798 330.814Z" fill="url(#paint47_linear_217_1482)"/>
<path d="M129.863 302.013H136.212V299.819H129.863V302.013Z" fill="#272747"/>
<path d="M129.863 333.008H136.212V330.814H129.863V333.008Z" fill="#272747"/>
<g style="mix-blend-mode:multiply" opacity="0.6">
<path d="M137.072 330.794H136.068C136.965 330.417 137.731 329.784 138.271 328.974C138.81 328.164 139.099 327.213 139.1 326.24V306.61C139.099 305.681 138.836 304.772 138.342 303.985C137.848 303.198 137.143 302.567 136.306 302.163H137.234C137.953 302.66 138.54 303.325 138.946 304.1C139.352 304.874 139.565 305.736 139.565 306.61V326.24C139.565 327.147 139.336 328.039 138.9 328.835C138.464 329.631 137.836 330.304 137.072 330.794Z" fill="#C06DA1"/>
</g>
<g style="mix-blend-mode:multiply" opacity="0.6">
<path d="M126.974 306.61V326.24C126.976 327.213 127.264 328.164 127.804 328.974C128.343 329.784 129.11 330.417 130.007 330.794H129.003C128.239 330.304 127.61 329.631 127.175 328.835C126.739 328.039 126.51 327.147 126.509 326.24V306.61C126.51 305.736 126.722 304.874 127.128 304.1C127.534 303.325 128.122 302.66 128.841 302.163H129.768C128.932 302.567 128.226 303.198 127.732 303.985C127.238 304.772 126.976 305.681 126.974 306.61Z" fill="#C06DA1"/>
</g>
<g style="mix-blend-mode:multiply" opacity="0.6">
<path d="M130.15 306.61V326.24C130.15 328.284 130.89 330.039 131.942 330.794H131.255C130.179 329.527 129.618 327.901 129.685 326.24V306.61C129.627 304.998 130.152 303.419 131.164 302.163H131.803C130.825 302.968 130.15 304.657 130.15 306.61Z" fill="#C06DA1"/>
</g>
<g style="mix-blend-mode:multiply" opacity="0.6">
<path d="M132.752 330.794L132.854 302.163H133.319L133.217 330.794H132.752Z" fill="#C06DA1"/>
</g>
<g style="mix-blend-mode:multiply" opacity="0.6">
<path d="M136.39 326.24C136.457 327.901 135.896 329.527 134.819 330.794H134.126C135.181 330.042 135.925 328.287 135.925 326.24V306.61C135.925 304.655 135.248 302.967 134.268 302.163H134.911C135.923 303.419 136.448 304.998 136.39 306.61V326.24Z" fill="#C06DA1"/>
</g>
<path d="M132.413 293.978H133.424L131.521 288.706H130.511L132.413 293.978Z" fill="#272747"/>
<path d="M133.662 293.978H132.651L134.553 288.706H135.564L133.662 293.978Z" fill="#272747"/>
<path d="M111.85 394.276C114.048 387.724 107.731 379.694 97.7387 376.341C87.7468 372.988 77.8644 375.581 75.6657 382.133C73.467 388.685 79.7846 396.715 89.7765 400.068C99.7684 403.421 109.651 400.828 111.85 394.276Z" fill="#323654"/>
<path d="M103.41 201.967C124.281 201.967 141.201 194.612 141.201 185.539C141.201 176.466 124.281 169.111 103.41 169.111C82.5385 169.111 65.6189 176.466 65.6189 185.539C65.6189 194.612 82.5385 201.967 103.41 201.967Z" fill="#EF5DA8"/>
<path d="M161.297 219.019C174.553 219.019 185.298 214.348 185.298 208.586C185.298 202.824 174.553 198.152 161.297 198.152C148.042 198.152 137.296 202.824 137.296 208.586C137.296 214.348 148.042 219.019 161.297 219.019Z" fill="url(#paint48_linear_217_1482)"/>
<path d="M74.446 214.283C76.2405 214.094 78.0104 213.719 79.7271 213.163C81.4642 212.575 83.1331 211.802 84.7054 210.858C86.3031 209.873 87.8094 208.746 89.2062 207.492C90.614 206.191 91.9253 204.788 93.1297 203.296C95.5577 200.22 97.6308 196.879 99.3098 193.338C101.039 189.756 102.423 186.018 103.442 182.174C102.864 186.152 101.909 190.066 100.588 193.863C99.2736 197.725 97.5272 201.427 95.3818 204.897C94.2708 206.655 93.0326 208.329 91.6772 209.906C90.2736 211.495 88.7295 212.955 87.0636 214.266C85.3492 215.588 83.4977 216.721 81.541 217.646C79.547 218.561 77.4618 219.263 75.3203 219.74L74.446 214.283Z" fill="#252577"/>
<path d="M40.5431 228.124C65.2715 228.124 85.3179 217.888 85.3179 205.262C85.3179 192.635 65.2715 182.399 40.5431 182.399C15.8147 182.399 -4.23169 192.635 -4.23169 205.262C-4.23169 217.888 15.8147 228.124 40.5431 228.124Z" fill="#F178B6"/>
<path d="M67.2093 255.917C95.9288 255.917 119.211 244.03 119.211 229.365C119.211 214.701 95.9288 202.813 67.2093 202.813C38.4898 202.813 15.208 214.701 15.208 229.365C15.208 244.03 38.4898 255.917 67.2093 255.917Z" fill="url(#paint49_linear_217_1482)"/>
<path d="M49.5441 260.149C62.3688 260.149 72.7652 254.841 72.7652 248.292C72.7652 241.744 62.3688 236.436 49.5441 236.436C36.7194 236.436 26.323 241.744 26.323 248.292C26.323 254.841 36.7194 260.149 49.5441 260.149Z" fill="#F178B6"/>
<path d="M137.199 239.583C157.277 239.583 173.552 232.644 173.552 224.084C173.552 215.525 157.277 208.586 137.199 208.586C117.122 208.586 100.846 215.525 100.846 224.084C100.846 232.644 117.122 239.583 137.199 239.583Z" fill="#EF5DA8"/>
<path d="M125.841 237.788C124.718 241.603 123.141 245.268 121.142 248.706C117.009 255.421 111.284 261.015 104.475 264.991C97.7901 269.02 90.0637 270.846 82.3469 273.666C79.5045 274.674 76.7455 275.903 74.0955 277.342C74.383 276.137 74.651 274.93 74.8995 273.722C77.0438 262.815 77.6676 251.92 78.1284 241.068C77.0702 246.399 75.9942 251.722 74.7035 256.97C73.4501 262.188 71.922 267.335 70.1257 272.392C68.3381 277.308 66.1381 282.065 63.5491 286.612C63.3033 286.991 63.0652 287.378 62.8424 287.776C62.3573 288.564 61.8584 289.34 61.3455 290.104C58.6123 288.239 56.2188 285.92 54.2687 283.248C52.1758 280.33 50.6358 277.054 49.7251 273.581C48.7824 270.011 48.3504 266.327 48.442 262.636C48.4937 258.878 49.0094 255.142 49.9771 251.51C48.5761 255.054 47.6179 258.757 47.1244 262.535C46.5813 266.377 46.5855 270.276 47.137 274.116C47.6999 278.065 48.981 281.877 50.9169 285.365C52.8299 288.752 55.3153 291.782 58.2627 294.32C57.0126 295.904 55.705 297.429 54.34 298.897L51.6831 301.599L48.8375 304.107C48.3544 304.514 47.9172 304.959 47.4003 305.333L45.8868 306.481L44.3812 307.627C43.8883 308.022 43.3759 308.392 42.8459 308.735C40.7057 310.136 38.6981 311.512 36.3186 312.947C34.0073 314.376 31.6659 315.835 29.31 317.35C26.9522 318.884 24.5853 320.482 22.2277 322.201C19.8764 323.943 17.5376 325.796 15.2565 327.841C12.9227 329.958 10.7363 332.231 8.71241 334.645C6.61969 337.218 4.75505 339.969 3.13965 342.866L21.0948 351.264C21.8288 349.274 22.7295 347.35 23.7873 345.512C24.9701 343.556 26.2836 341.683 27.7189 339.904C29.2219 338.069 30.8855 336.264 32.6483 334.481C34.4335 332.706 36.3253 330.952 38.2802 329.206C40.2532 327.462 42.2765 325.713 44.3502 323.957C46.3929 322.258 48.5992 320.225 50.7306 318.291C51.276 317.82 51.7777 317.287 52.2843 316.762L53.8013 315.192L55.3103 313.625C55.8214 313.114 56.2628 312.52 56.7402 311.973C57.6746 310.853 58.6154 309.748 59.5286 308.623L62.0803 305.086C65.335 300.333 68.0622 295.24 70.2139 289.897C70.7384 288.551 71.2273 287.198 71.6807 285.839C72.4622 285.045 73.2966 284.306 74.1782 283.625C77.2311 281.335 80.5585 279.436 84.0829 277.972C87.6735 276.384 91.4425 274.988 95.1985 273.39C97.076 272.59 98.9507 271.74 100.79 270.788C102.629 269.829 104.412 268.767 106.131 267.606C112.996 262.994 118.617 256.759 122.496 249.456C124.315 245.813 125.688 241.965 126.586 237.994C127.537 234.068 128.194 230.102 128.916 226.149C127.942 230.047 127.03 233.967 125.841 237.788Z" fill="#272747"/>
<path d="M160.799 409.561C159.918 420.914 149.677 429.377 137.926 428.466C126.174 427.554 117.361 417.612 118.242 406.26C119.123 394.908 129.363 376.775 141.115 377.687C152.867 378.599 161.679 398.209 160.799 409.561Z" fill="#FCDDEC"/>
<path d="M51.4688 367.143C50.8341 375.324 43.454 381.424 34.9849 380.767C26.5158 380.11 20.1646 372.945 20.7993 364.764C21.434 356.582 28.8141 343.515 37.2832 344.172C45.7523 344.829 52.1034 358.962 51.4688 367.143Z" fill="#FCDDEC"/>
<path d="M137.465 406.246C137.163 408.925 135.833 411.383 133.755 413.1C131.677 414.818 129.013 415.661 126.325 415.453C123.637 415.244 121.135 414 119.347 411.982C117.558 409.965 116.623 407.332 116.739 404.638C117.168 399.109 122.155 390.278 127.878 390.722C133.602 391.166 137.893 400.717 137.465 406.246Z" fill="#F178B6"/>
<path d="M97.2563 376.424C97.2015 375.839 97.1467 375.254 97.0919 374.67C92.2837 374.953 87.4595 374.79 82.6815 374.182C87.3303 373.317 91.8935 372.043 96.3181 370.375C96.1292 369.819 95.9404 369.262 95.7516 368.706C92.0951 369.809 88.3623 370.642 84.5836 371.198C87.8816 369.464 91.0549 367.503 94.0804 365.328C93.7533 364.841 93.4262 364.353 93.0992 363.865C90.7066 365.35 88.2352 366.704 85.6959 367.921C87.9238 364.591 89.8991 361.098 91.6051 357.472C91.0821 357.205 90.5592 356.937 90.0363 356.67C87.3504 361.501 84.1571 366.033 80.5105 370.188C80.4602 370.208 80.4093 370.226 80.3589 370.246C82.9571 365.73 85.1095 360.972 86.7857 356.039C86.236 355.832 85.6863 355.624 85.1366 355.417C83.5493 359.224 81.6618 362.899 79.4921 366.407C80.4599 362.547 81.1392 358.62 81.5243 354.66C80.9419 354.583 80.3594 354.507 79.7769 354.431C78.7764 360.469 77.0667 366.368 74.6833 372.005C74.589 372.006 74.4949 372.007 74.4007 372.008C75.3097 367.15 76.6797 362.389 78.4919 357.791C77.9532 357.556 77.4144 357.322 76.8757 357.088C75.2088 360.6 73.7993 364.228 72.6584 367.945C72.06 363.958 71.1621 360.023 69.9723 356.171C69.4056 356.326 68.8389 356.481 68.2722 356.636C69.3798 361.323 70.0499 366.103 70.2737 370.915C68.6211 366.484 66.5803 362.208 64.1749 358.137C63.6596 358.419 63.1442 358.701 62.6287 358.983C64.3454 362.395 65.8087 365.928 67.0068 369.555C64.7311 366.605 62.2526 363.816 59.5894 361.211C59.1651 361.617 58.7408 362.023 58.3164 362.43C61.5011 366.078 64.369 369.991 66.8891 374.126C68.4948 376.167 70.0352 379.125 69.7103 381.763C69.5732 382.876 69.4633 383.994 69.3726 385.115C69.3532 385.354 69.3357 385.594 69.3185 385.834C69.3992 385.768 69.4813 385.704 69.5619 385.639C69.8443 385.409 70.1247 385.177 70.403 384.943C71.9012 383.688 73.3283 382.351 74.757 381.019C75.2222 380.585 78.1672 377.094 78.4644 377.194C83.9651 379.047 89.241 381.51 94.1936 384.538C94.5171 384.047 94.8406 383.557 95.164 383.067C91.9918 380.82 88.6605 378.806 85.1963 377.043C89.2262 377.14 93.2576 376.933 97.2563 376.424Z" fill="#EF5DA8"/>
<path d="M486.484 417.559C493.481 403.06 503.788 390.409 516.575 380.627C568.603 341.165 651.456 358.743 721.37 417.559H486.484Z" fill="#272747"/>
<path d="M412.963 417.559C422.843 410.032 433.832 404.082 445.537 399.924C484.4 386.228 527.227 393.799 567.573 417.559H412.963Z" fill="#323654"/>
<path d="M-69.5845 417.56C-29.9781 372.25 21.1156 350.288 66.0377 365.369C90.9738 373.741 110.529 392.382 123.741 417.56H-69.5845Z" fill="#272747"/>
<path d="M51.4722 417.559C85.8297 393.633 122.639 386.437 150.678 402.204C157.652 406.154 163.835 411.36 168.916 417.559H51.4722Z" fill="#323654"/>
<path d="M279.695 417.56C254.343 406.35 227.886 405.704 207.399 417.56H279.695Z" fill="#323654"/>
</g>
</g>
<defs>
<linearGradient id="paint0_linear_217_1482" x1="496.097" y1="378.58" x2="460.366" y2="212.97" gradientUnits="userSpaceOnUse">
<stop offset="0.35834" stop-color="#1C7EB6"/>
<stop offset="1" stop-color="#44408D"/>
</linearGradient>
<linearGradient id="paint1_linear_217_1482" x1="544.786" y1="266.937" x2="544.787" y2="215.256" gradientUnits="userSpaceOnUse">
<stop offset="0.33521" stop-color="white"/>
<stop offset="1" stop-color="#74B8ED"/>
</linearGradient>
<linearGradient id="paint2_linear_217_1482" x1="475.384" y1="280.564" x2="500.168" y2="251.784" gradientUnits="userSpaceOnUse">
<stop stop-color="#84BCEA"/>
<stop offset="1" stop-color="#1C92DA"/>
</linearGradient>
<linearGradient id="paint3_linear_217_1482" x1="13565.2" y1="51522.2" x2="13809.4" y2="48372.4" gradientUnits="userSpaceOnUse">
<stop stop-color="#84BCEA"/>
<stop offset="1" stop-color="#1C92DA"/>
</linearGradient>
<linearGradient id="paint4_linear_217_1482" x1="471.26" y1="301.46" x2="474.142" y2="264.288" gradientUnits="userSpaceOnUse">
<stop stop-color="white"/>
<stop offset="1" stop-color="#74B8ED"/>
</linearGradient>
<linearGradient id="paint5_linear_217_1482" x1="347.63" y1="208.805" x2="442.725" y2="567.135" gradientUnits="userSpaceOnUse">
<stop stop-color="#63159B"/>
<stop offset="1" stop-color="#F49DA4"/>
</linearGradient>
<linearGradient id="paint6_linear_217_1482" x1="241.447" y1="356.401" x2="285.469" y2="407.479" gradientUnits="userSpaceOnUse">
<stop stop-color="#63159B"/>
<stop offset="1" stop-color="#F49DA4"/>
</linearGradient>
<linearGradient id="paint7_linear_217_1482" x1="9755.39" y1="12465.6" x2="9755.39" y2="10032.4" gradientUnits="userSpaceOnUse">
<stop stop-color="#1C7EB6"/>
<stop offset="1" stop-color="#44408D"/>
</linearGradient>
<linearGradient id="paint8_linear_217_1482" x1="15752.9" y1="10978.4" x2="15752.9" y2="9418.51" gradientUnits="userSpaceOnUse">
<stop stop-color="#1C7EB6"/>
<stop offset="1" stop-color="#44408D"/>
</linearGradient>
<linearGradient id="paint9_linear_217_1482" x1="12387.2" y1="11552.5" x2="12387.2" y2="9818.85" gradientUnits="userSpaceOnUse">
<stop stop-color="#1C7EB6"/>
<stop offset="1" stop-color="#44408D"/>
</linearGradient>
<linearGradient id="paint10_linear_217_1482" x1="16205.7" y1="9935.54" x2="16205.7" y2="8667.92" gradientUnits="userSpaceOnUse">
<stop stop-color="#1C7EB6"/>
<stop offset="1" stop-color="#44408D"/>
</linearGradient>
<linearGradient id="paint11_linear_217_1482" x1="14209.7" y1="8822.88" x2="14209.7" y2="7833.63" gradientUnits="userSpaceOnUse">
<stop stop-color="#1C7EB6"/>
<stop offset="1" stop-color="#44408D"/>
</linearGradient>
<linearGradient id="paint12_linear_217_1482" x1="9458.11" y1="25202.4" x2="9458.11" y2="16633.3" gradientUnits="userSpaceOnUse">
<stop stop-color="#1C7EB6"/>
<stop offset="1" stop-color="#44408D"/>
</linearGradient>
<linearGradient id="paint13_linear_217_1482" x1="8814.96" y1="15731.4" x2="8814.96" y2="12456.1" gradientUnits="userSpaceOnUse">
<stop stop-color="#1C7EB6"/>
<stop offset="1" stop-color="#44408D"/>
</linearGradient>
<linearGradient id="paint14_linear_217_1482" x1="8134.34" y1="13091.6" x2="8134.34" y2="10846.7" gradientUnits="userSpaceOnUse">
<stop stop-color="#1C7EB6"/>
<stop offset="1" stop-color="#44408D"/>
</linearGradient>
<linearGradient id="paint15_linear_217_1482" x1="15058.1" y1="12659.6" x2="15058.1" y2="10564.8" gradientUnits="userSpaceOnUse">
<stop stop-color="#1C7EB6"/>
<stop offset="1" stop-color="#44408D"/>
</linearGradient>
<linearGradient id="paint16_linear_217_1482" x1="17039.2" y1="13862.7" x2="17039.2" y2="11336.9" gradientUnits="userSpaceOnUse">
<stop stop-color="#1C7EB6"/>
<stop offset="1" stop-color="#44408D"/>
</linearGradient>
<linearGradient id="paint17_linear_217_1482" x1="17820.9" y1="11552.5" x2="17820.9" y2="9818.85" gradientUnits="userSpaceOnUse">
<stop stop-color="#1C7EB6"/>
<stop offset="1" stop-color="#44408D"/>
</linearGradient>
<linearGradient id="paint18_linear_217_1482" x1="12083.7" y1="12616.1" x2="12083.7" y2="10536.2" gradientUnits="userSpaceOnUse">
<stop stop-color="#1C7EB6"/>
<stop offset="1" stop-color="#44408D"/>
</linearGradient>
<linearGradient id="paint19_linear_217_1482" x1="11314.9" y1="17238.9" x2="11314.9" y2="13288.2" gradientUnits="userSpaceOnUse">
<stop stop-color="#1C7EB6"/>
<stop offset="1" stop-color="#44408D"/>
</linearGradient>
<linearGradient id="paint20_linear_217_1482" x1="10671.7" y1="15694" x2="10671.7" y2="12434.7" gradientUnits="userSpaceOnUse">
<stop stop-color="#1C7EB6"/>
<stop offset="1" stop-color="#44408D"/>
</linearGradient>
<linearGradient id="paint21_linear_217_1482" x1="10211" y1="18254.9" x2="10211" y2="13813.2" gradientUnits="userSpaceOnUse">
<stop stop-color="#1C7EB6"/>
<stop offset="1" stop-color="#44408D"/>
</linearGradient>
<linearGradient id="paint22_linear_217_1482" x1="-2922.67" y1="21812.3" x2="-2922.67" y2="19152.1" gradientUnits="userSpaceOnUse">
<stop stop-color="#1C7EB6"/>
<stop offset="1" stop-color="#44408D"/>
</linearGradient>
<linearGradient id="paint23_linear_217_1482" x1="-8415.8" y1="13980.9" x2="-8415.8" y2="12727.2" gradientUnits="userSpaceOnUse">
<stop stop-color="#1C7EB6"/>
<stop offset="1" stop-color="#44408D"/>
</linearGradient>
<linearGradient id="paint24_linear_217_1482" x1="-4594.02" y1="22812.6" x2="-4594.02" y2="19899.1" gradientUnits="userSpaceOnUse">
<stop stop-color="#1C7EB6"/>
<stop offset="1" stop-color="#44408D"/>
</linearGradient>
<linearGradient id="paint25_linear_217_1482" x1="-2079.28" y1="23453.4" x2="-2079.28" y2="20371.5" gradientUnits="userSpaceOnUse">
<stop stop-color="#1C7EB6"/>
<stop offset="1" stop-color="#44408D"/>
</linearGradient>
<linearGradient id="paint26_linear_217_1482" x1="-5025.89" y1="21648.3" x2="-5025.89" y2="19028.5" gradientUnits="userSpaceOnUse">
<stop stop-color="#1C7EB6"/>
<stop offset="1" stop-color="#44408D"/>
</linearGradient>
<linearGradient id="paint27_linear_217_1482" x1="-3469.59" y1="20406.8" x2="-3469.59" y2="18083.1" gradientUnits="userSpaceOnUse">
<stop stop-color="#1C7EB6"/>
<stop offset="1" stop-color="#44408D"/>
</linearGradient>
<linearGradient id="paint28_linear_217_1482" x1="-8131.8" y1="26237.3" x2="-8131.8" y2="22369.1" gradientUnits="userSpaceOnUse">
<stop stop-color="#1C7EB6"/>
<stop offset="1" stop-color="#44408D"/>
</linearGradient>
<linearGradient id="paint29_linear_217_1482" x1="-7518.65" y1="23161" x2="-7518.65" y2="20156.5" gradientUnits="userSpaceOnUse">
<stop stop-color="#1C7EB6"/>
<stop offset="1" stop-color="#44408D"/>
</linearGradient>
<linearGradient id="paint30_linear_217_1482" x1="-6869.35" y1="20214.6" x2="-6869.35" y2="17935.2" gradientUnits="userSpaceOnUse">
<stop stop-color="#1C7EB6"/>
<stop offset="1" stop-color="#44408D"/>
</linearGradient>
<linearGradient id="paint31_linear_217_1482" x1="-3931.17" y1="24689.4" x2="-3931.17" y2="21269.4" gradientUnits="userSpaceOnUse">
<stop stop-color="#1C7EB6"/>
<stop offset="1" stop-color="#44408D"/>
</linearGradient>
<linearGradient id="paint32_linear_217_1482" x1="-5820.57" y1="25141.5" x2="-5820.57" y2="21593.5" gradientUnits="userSpaceOnUse">
<stop stop-color="#1C7EB6"/>
<stop offset="1" stop-color="#44408D"/>
</linearGradient>
<linearGradient id="paint33_linear_217_1482" x1="-5365.53" y1="20745.8" x2="-5365.53" y2="18343" gradientUnits="userSpaceOnUse">
<stop stop-color="#1C7EB6"/>
<stop offset="1" stop-color="#44408D"/>
</linearGradient>
<linearGradient id="paint34_linear_217_1482" x1="-6566.86" y1="20518.1" x2="-6566.86" y2="18168.6" gradientUnits="userSpaceOnUse">
<stop stop-color="#1C7EB6"/>
<stop offset="1" stop-color="#44408D"/>
</linearGradient>
<linearGradient id="paint35_linear_217_1482" x1="-10288.4" y1="27021.5" x2="-10288.4" y2="22915.7" gradientUnits="userSpaceOnUse">
<stop stop-color="#1C7EB6"/>
<stop offset="1" stop-color="#44408D"/>
</linearGradient>
<linearGradient id="paint36_linear_217_1482" x1="-9903.09" y1="24843.9" x2="-9903.09" y2="21380.5" gradientUnits="userSpaceOnUse">
<stop stop-color="#1C7EB6"/>
<stop offset="1" stop-color="#44408D"/>
</linearGradient>
<linearGradient id="paint37_linear_217_1482" x1="-9289.76" y1="23119.6" x2="-9289.76" y2="20126" gradientUnits="userSpaceOnUse">
<stop stop-color="#1C7EB6"/>
<stop offset="1" stop-color="#44408D"/>
</linearGradient>
<linearGradient id="paint38_linear_217_1482" x1="-8850.39" y1="25977.9" x2="-8850.39" y2="22186.8" gradientUnits="userSpaceOnUse">
<stop stop-color="#1C7EB6"/>
<stop offset="1" stop-color="#44408D"/>
</linearGradient>
<linearGradient id="paint39_linear_217_1482" x1="118.06" y1="236.477" x2="300.623" y2="569.186" gradientUnits="userSpaceOnUse">
<stop stop-color="#63159B"/>
<stop offset="1" stop-color="#F49DA4"/>
</linearGradient>
<linearGradient id="paint40_linear_217_1482" x1="332.271" y1="447.054" x2="332.271" y2="369.925" gradientUnits="userSpaceOnUse">
<stop stop-color="#FDFDFD" stop-opacity="0.2368"/>
<stop offset="0.03606" stop-color="#FDFDFD" stop-opacity="0.28051"/>
<stop offset="0.30185" stop-color="#FDFDFD" stop-opacity="0.58601"/>
<stop offset="0.52122" stop-color="#FDFDFD" stop-opacity="0.80963"/>
<stop offset="0.68325" stop-color="#FDFDFD" stop-opacity="0.94776"/>
<stop offset="0.77028" stop-color="#FDFDFD"/>
</linearGradient>
<linearGradient id="paint41_linear_217_1482" x1="440.264" y1="251.709" x2="567.239" y2="602.178" gradientUnits="userSpaceOnUse">
<stop stop-color="#63159B"/>
<stop offset="1" stop-color="#F49DA4"/>
</linearGradient>
<linearGradient id="paint42_linear_217_1482" x1="490.311" y1="509.158" x2="451.749" y2="330.426" gradientUnits="userSpaceOnUse">
<stop offset="0.35834" stop-color="#80288E"/>
<stop offset="1" stop-color="#44408D"/>
</linearGradient>
<linearGradient id="paint43_linear_217_1482" x1="33.8059" y1="344.992" x2="129.542" y2="297.487" gradientUnits="userSpaceOnUse">
<stop stop-color="#63159B"/>
<stop offset="1" stop-color="#F49DA4"/>
</linearGradient>
<linearGradient id="paint44_linear_217_1482" x1="111.988" y1="301.185" x2="113.69" y2="303.109" gradientUnits="userSpaceOnUse">
<stop stop-color="#FB9898"/>
<stop offset="1" stop-color="#E38776"/>
</linearGradient>
<linearGradient id="paint45_linear_217_1482" x1="-1136.11" y1="33393.3" x2="-444.525" y2="33428.4" gradientUnits="userSpaceOnUse">
<stop stop-color="#FB9898"/>
<stop offset="1" stop-color="#E38776"/>
</linearGradient>
<linearGradient id="paint46_linear_217_1482" x1="-8386.1" y1="1891.37" x2="-8341.45" y2="2202" gradientUnits="userSpaceOnUse">
<stop stop-color="#FB9898"/>
<stop offset="1" stop-color="#E38776"/>
</linearGradient>
<linearGradient id="paint47_linear_217_1482" x1="123.223" y1="306.61" x2="142.852" y2="326.24" gradientUnits="userSpaceOnUse">
<stop stop-color="#FF977C"/>
<stop offset="0.10035" stop-color="#FF8A75"/>
<stop offset="0.28624" stop-color="#FF6761"/>
<stop offset="0.40344" stop-color="#FF4E53"/>
<stop offset="0.52429" stop-color="#F24650"/>
<stop offset="0.74909" stop-color="#CF2F4A"/>
<stop offset="1" stop-color="#A11241"/>
</linearGradient>
<linearGradient id="paint48_linear_217_1482" x1="167.082" y1="193.284" x2="186.994" y2="247.492" gradientUnits="userSpaceOnUse">
<stop stop-color="#63159B"/>
<stop offset="1" stop-color="#F49DA4"/>
</linearGradient>
<linearGradient id="paint49_linear_217_1482" x1="79.7429" y1="190.422" x2="136.695" y2="322.419" gradientUnits="userSpaceOnUse">
<stop stop-color="#63159B"/>
<stop offset="1" stop-color="#F49DA4"/>
</linearGradient>
</defs>
</svg>
